<svg xmlns="http://www.w3.org/2000/svg" viewBox="0 0 305.85 307.5"><g id="Layer_2" data-name="Layer 2"><g id="Layer_1-2" data-name="Layer 1"><g id="d1gRMM.tif"><path d="M167.47,290.52c-5,.87-9.33-.64-13.41-3.25a1.72,1.72,0,0,0-1.17,0c-2.64.65-5.25,1.75-7.92,1.89s-5.12-.73-7.86-1.18c4.94,5.18,9.83,10.35,14.8,15.43.44.46,1.43.38,3.14.77-2,1.21-3.39,2.54-5,2.92-4.9,1.14-9.57,0-14-2.18-.82-.4-1.63-.82-2.3-1.16-3.68,2.6-7.59,1.57-10.74,0s-5.53-4.65-8.08-7.43l1.47,4.27c-11.42-1.08-17.24-8-20.09-18.19l-.8.28c.21,3,.35,5.95.66,8.91.25,2.41-.26,2.84-2.58,2-6.66-2.31-10.87-6.77-12.35-13.74a8.41,8.41,0,0,0-1.5-3.38c-.28,1.27-.58,2.54-.84,3.81a21.66,21.66,0,0,1-.56,2.93c-.93,2.55-2,2.78-4.25,1.15-4.53-3.34-7.31-7.62-7.56-13.37,0-.21-.22-.4-.52-.93-.77,1.67-1.46,3.1-2.1,4.55s-1.43,1.74-2.83.61c-5-4-7.2-9-5.8-15.37a15.07,15.07,0,0,0,0-2.14c-1.43,2.35-2.44,4.11-3.55,5.81-1.36,2.1-2.15,2.13-3.82.34-3-3.23-4.24-6.82-2.8-11.21a12.33,12.33,0,0,0,.22-5.2,53.6,53.6,0,0,0-3.76,5.17c-1.18,2.08-2.26,2-3.88.56-3.26-2.88-3-6.62-2.73-10.38a3.47,3.47,0,0,0-.08-1.81l-4,3.48c-1.64-2.48-3.83-4.72-2.94-8.12.5-1.93-.11-3-1.93-3.57-.94-.31-1.8-1.07-2.74-1.16-3.29-.3-3.15-2.15-2.28-4.49.77-2.07.36-3.55-1.83-4.64a10.08,10.08,0,0,1-3.14-3.1c-1-1.34-1.31-2.76.39-3.42-1.2-1.73-2.76-3.27-3.44-5.14-1.19-3.26-.75-3.75,1.81-4.47-2.17-2.49-4.76-5-6.74-7.83s-1.7-3.13,1.56-4.11a42,42,0,0,1-4.24-5c-1.93-3.15-1.4-4.27,2.23-5.3a17.45,17.45,0,0,0-1.93-2.27c-2.74-2.26-3.48-5.39-3.84-8.65-.24-2.13.59-2.74,2.68-2.12,1.36.41,2.68,1,4.1,1.48C7,170.68,5.12,169.24,4,167.36a43.24,43.24,0,0,1-3.68-8.28c-.69-2,.31-2.81,2.37-2.18,1.87.57,3.7,1.26,5.79,2-2.26-2.5-4.41-4.67-6.3-7C-.7,148.21-.22,144,.76,139.9c.59-2.41,2.06.06,2.78,0-.61-2.69-1.62-5.4-1.73-8.14-.1-2.56-.59-5.75,2.39-6.82l1.93-10.58c.3-1.68.74-3.13,3.49-1.14-1.82-4.57-.76-8.21.83-11.74A15.54,15.54,0,0,1,12.27,99c.64.66,1.28,1.33,1.93,2a2.8,2.8,0,0,0,.5.41c.33-4.07.35-8.37,1.14-12.53.47-2.51,2-4.9,3.32-7.14,1-1.63,3-1.17,3.4.74.74,3.14,1.06,6.38,1.89,9.5s2,6.1,3.29,9.73c.55-1.71.89-2.8,1.25-3.88,1.21-3.6,3.88-5.93,7-7.8a4.47,4.47,0,0,0,2.46-4.38c0-3-.9-6.22,1.19-8.93a27,27,0,0,1,3-3.27,31.7,31.7,0,0,1,2.9-2.17C41,70.58,24.4,77,23.14,79.74c-2.26-1-2.73-2.18-1.23-5.45a29.8,29.8,0,0,1,9.93-12.18c-1-3.71,1.75-5.8,3.9-7.84,3.41-3.24,7.41-5.61,12.32-5.94.43,0,.83-.37,1.28-1.11a21.26,21.26,0,0,1-2.64-.67c-1.26-.49-2.46-1.23-1-2.68,3.9-3.75,8.33-6.66,13.77-7.51a29.54,29.54,0,0,1,5.94.09,6.94,6.94,0,0,0,2.94-.19c-2-1-4-1.91-5.92-2.9S60.4,31.44,62,30c4.78-4.28,10-7.09,16.75-5.3a5,5,0,0,0,1.18-.2,13.61,13.61,0,0,1-2-1.43c-.76-.81-2-1.8-1.91-2.6a3.42,3.42,0,0,1,2.35-2.18c3.32-.6,6.75-1.35,10-1.06s6.38,1.78,10.1,2.54a51.92,51.92,0,0,1-5.38-4.62c-1.61-1.79-1.18-2.4,1-3.36,5.26-2.28,8.75-2.19,16.63.37-.83-1.17-1.49-2-2-2.85-1.29-2.19-.9-3.06,1.55-3.74,4.19-1.18,8.21-1.08,11.88,1.61a10.13,10.13,0,0,0,1.52.66c-.78-1.29-1.19-2-1.67-2.75-1.26-1.9-1-2.69,1.37-2.66a78.22,78.22,0,0,1,7.93.89c1.53-2.9,2.49-3,8.91-.19.89-3.77,5.61-4.2,10-.92,2.25-2.58,2.29-2.62,4.89-.29a2.54,2.54,0,0,0,3.51.4c3-1.87,6.2-1.67,9.34-.4.75.3,1.28,1.13,2.18,2,.87-.39,2.25-1.1,3.7-1.63a7.56,7.56,0,0,1,2.87-.53c2.89.15,3.26.73,2.58,4.19,2.71-2.4,5.41-1.71,8.12-.87s2.74,1.12,1.26,3.49a7.34,7.34,0,0,0-.43,1.24c1.86-1,3.4-1.79,4.94-2.62,2.08-1.11,5.5-.84,6.93.94.47.57-.07,2-.15,3,4.1-1.89,8.1-.42,12.5,1.67l-3.41,3.89c5-.86,9.74-1.19,14.32.87,3.2,1.44,3.3,1.75.69,4.07-.22.19-.43.39-1.21,1.13,5.36-1.42,9.89-1.33,14.16,1.06a16.09,16.09,0,0,1,1.49.92c3,2.2,3,3.16-.28,5-.78.42-1.49,1-2.87,1.88,2.16-.22,3.58-.29,5-.51,5.65-.91,9.38,2.52,13,6,.42.4-.39,2.08-.66,3.33,1.93.63,4.36,1.24,6.63,2.21a4.46,4.46,0,0,1,1.92,6c2.23,1.32,4.69,2.37,6.63,4s3.18,3.81,5,6.14l-3,.88c4.37,1,7.26,3.87,9.31,7.64A57,57,0,0,1,283,75.66c-6,.12-11.25-2.87-17.14-3.14,3.14,4.27,3.48,8.91,1.88,13.83a1.75,1.75,0,0,0,.58,1.57c5.79,3.26,6.81,8.8,7.15,14.69a7,7,0,0,0,.26,2.06c4.49-8.83,8-17.86,7.49-27.92,6.38,3.75,9.33,16.33,6.87,28.16a35.23,35.23,0,0,1,1.94-3,30.61,30.61,0,0,1,2.45-2.52,16.6,16.6,0,0,1,2.14,2.87c3.31,7.28.8,13.88-2.57,20.35a1.59,1.59,0,0,0-.22,1.31c1.66-1.53,3.27-3.13,5-4.55a4.65,4.65,0,0,1,2.54-.92c.24,0,.75,1.31.82,2,.68,8-2.45,14.56-7.64,20.36a9.53,9.53,0,0,0-2.05,2.94c3-2.09,5.93-4.2,8.93-6.24.64-.44,1.74-1.11,2.09-.87a3.61,3.61,0,0,1,1.19,2.22c1.26,7-1.89,12.22-6.88,16.66a6.29,6.29,0,0,0-1.95,2.3c1.76-.83,3.48-1.77,5.3-2.44a21.78,21.78,0,0,1,3.73-.73,12.82,12.82,0,0,1,.5,3.67c-.83,5.32-3.89,9.2-8.32,12.08a5.56,5.56,0,0,0-1.92,1.64c2.25-.64,4.51-1.27,6.76-1.92,2.51-.74,4.16.61,3.8,3.18-.81,5.72-3.74,9.84-9.18,12.06a15,15,0,0,0-4.49,2.7l5.93.67a17.16,17.16,0,0,1,2.71.31c1.58.45,2.28,1.37,1.13,2.93l-6.46,8.81c-.16-.31-.14-.19-.08-.17,3.72,1.56,3.91,2.25,1.34,5.68a14.17,14.17,0,0,1-2.27,2.31,24.11,24.11,0,0,1-2.1,1.46c.5.79,1.42,1.62,1.44,2.47a4,4,0,0,1-1.38,2.5,50.68,50.68,0,0,1-4,3.25c.47.42,1.63,1,1.72,1.64a4.59,4.59,0,0,1-1.12,2.64c-1.2,1.69-2.53,3.28-4.19,5.39.45,1.11-.84,1.89-2.34,2.38-1.65.54-1.74,1.52-1.88,3.16a14.3,14.3,0,0,1-2.35,6.32c-1.55,2.32-2.46,2.16-4.8,0,1.18,4.28,0,7.57-3.78,10l-2.26-2.89-.55.07a9.94,9.94,0,0,1-.05,2.94,34.75,34.75,0,0,1-2.53,6.29c-.9,1.64-2.21,2.07-3.12-.22-.14-.33-.55-.55-1.2-1.16-.18,5.39-.35,10.48-6.2,12.69l-2.07-2.77a15.58,15.58,0,0,0-.61,2.26c-.37,4.13-3.41,6.08-6.51,7.92-.34.19-1.54-.4-1.8-.91a45.76,45.76,0,0,1-1.85-4.87c-.54,2.3-1,4.16-1.4,6-1.07,4.58-5,6.67-8.33,9.19-.35.26-2-1.24-3.3-2.05.21-.24-.12,0-.17.22-1.06,4.89-4.62,7.27-8.88,9-2.71,1.08-3.11.82-3.26-2.07a13.72,13.72,0,0,0-.37-1.83,12.87,12.87,0,0,0-1,1.87c-1.51,4.65-5.46,6.57-9.5,8.13-2.46.95-2.06-1.14-1.91-2.17-2.69,1.59-5.39,3.65-8.43,4.81-2.05.79-4.59.29-6.91.38a4.9,4.9,0,0,0-1.07.19c-3.72,1.05-7.43,2.94-11.15,3-4.73,0-9.14,1.64-13.78,1.69a21,21,0,0,1-4-.1,9.47,9.47,0,0,1-2.49-1.31,10,10,0,0,1,1.34-2.17c3.78-3.56,7.63-7,11.46-10.55Zm50.74-89.43a8.89,8.89,0,0,0,3.07-10.63c-.43,1.71-.4,3.51-.84,5.19a47.41,47.41,0,0,1-2.17,5.49c-2.12,1.39-4.26,2.76-6.34,4.21-.28.2-.28.81-.41,1.23.37.08.82.34,1.08.2C215.08,205.5,217.7,204.32,218.21,201.09ZM209.08,87.87h.9a14.42,14.42,0,0,1,1.27,3.28c.42,3.29.77,6.59.86,9.9.13,4.62.13,9.27-.06,13.89-.1,2.49-.15,4.49,2.09,6.44,4.3,3.71,5.66,8.69,4.35,14.26A42.45,42.45,0,0,1,211,151.48c-4.37,5.83-9.19,11.39-11.75,18.39-1.36,3.74-.83,7.27,1.55,9.19s4.87,1.72,8.55-.48c.21-.13.41-.28.61-.43,2.8-2.07,5.7-4,8.37-6.23,5.47-4.56,11.1-9,16.1-14,3.64-3.67,6.51-8.14,9.49-12.42a156.09,156.09,0,0,0,13.45-23.82,89.09,89.09,0,0,0,8.36-31.29,2.87,2.87,0,0,0-1.27-2.28,73.46,73.46,0,0,0-10.27-4.4c-5.87-1.76-11.8-3.75-17.83-4.42-14.37-1.6-28.69.73-43,1.65-2.09.13-3.14.92-3.44,3.28a33.09,33.09,0,0,1-7.93,17.7c-8.68,10-20.23,14.26-32.88,15.11-11.79.8-23.53,1.61-35,4.53-9.73,2.48-19.38,5.35-28.9,8.54-5.71,1.91-11.1,4.77-16.65,7.17a14.73,14.73,0,0,1-2.33.6,6.62,6.62,0,0,1,.93-2.25c7.55-7.48,17-11.92,26.58-16.44,0-.62,0-1.37,0-2.11-.1-6.82,5.26-11,9.79-12.38,5.54-1.69,11.18-1,16.8-.26s11.14,1.86,16.73,2a47.07,47.07,0,0,0,12.51-1.63c3.5-.85,4.19-5,1.8-7.8a24.46,24.46,0,0,0-9.85-6.55c-7.77-3-15.35-6.72-23.33-9.08a78.28,78.28,0,0,0-19.4-2.91c-8.36-.3-16.76.57-25.14.73a70.3,70.3,0,0,0-30.89,7.69,3.59,3.59,0,0,0-2.32,3.62c-.17,9.45,2.75,18.27,6.28,26.72,4.45,10.62,9.65,21,16.65,30.25,2.37,3.15,4.83,6.22,7.31,9.39a28.27,28.27,0,0,1,18-4.11c10,.83,19,4.65,25.68,12.26,6,6.84,11.18,14.4,16.78,21.61,4.48,5.76,8.93,11.55,13.62,17.14,3.09,3.69,6.49,7.12,9.93,10.49,4.25,4.19,8.56,8.34,13.1,12.21,2.55,2.17,5.65,3.69,8.41,5.63.53.38.65,1.34,1,2a8.86,8.86,0,0,1-2-.06c-1.53-.41-3-1-4.53-1.4a36.45,36.45,0,0,1-15-7.55,7.39,7.39,0,0,0-6.29-1.93c-8,.93-14.44-1.76-19.17-8.44-4.37-6.17-7-13.14-9.85-20.06a21.52,21.52,0,0,0-8.7-10.29,5.05,5.05,0,0,0-7.88,3.55,17.23,17.23,0,0,0-.24,3.21,91.69,91.69,0,0,0,2.33,19.1,116.19,116.19,0,0,0,11.35,30.46C123,251.06,128.6,261.64,137,270.2c4.42,4.48,9.08,8.73,13.64,13.07a2.67,2.67,0,0,0,4.13-.06c5.86-5.5,12-10.72,17.45-16.62,3.49-3.8,5.91-8.59,8.78-13A147.23,147.23,0,0,0,196,225.28c.65-1.69.27-2.42-1.06-3.48-6.64-5.29-12-11.73-13.93-20.1a44.35,44.35,0,0,1,3.68-31.26c2.78-5.39,5.63-10.77,7.87-16.39,3.9-9.78,8-19.49,10-30,2-11,6-21.58,5.45-33C207.88,90.05,208.68,89,209.08,87.87Zm-6,58c1.27,2.89-.24,5.06-1.32,7.32-3,6.28-5.84,12.66-9.13,18.79-2.67,5-3.57,10-1.77,15.28a8,8,0,0,0,3.52,3.89c4.21,2.36,8.5,1.24,12.31-1a100.21,100.21,0,0,0,11.37-8c4.46-3.59,9.17-6.65,14.84-7.7a20.05,20.05,0,0,1,8.09-.07,50.22,50.22,0,0,1,17.87,8.44c.92.67,1.95,1.18,2.93,1.77l.48-.72c-2.81-2.27-5.6-4.56-8.44-6.79-10.71-8.45-22.92-8.29-34.34-1.44a93.1,93.1,0,0,1-13.77,6.29,6.1,6.1,0,0,1-4.71-.23,9.24,9.24,0,0,1-3.89-11.9,78.88,78.88,0,0,1,7.19-12.43c3.84-5.49,8.29-10.46,10.8-16.9,2.8-7.19,2.57-13.44-3.39-18.83a4.85,4.85,0,0,1-1.53-4.93,42.43,42.43,0,0,0,.34-5.06l-.9-.08-1.23,6.41-.41-.09v-6.41c-1.7,6-2.68,12.19-4.35,18.16-1.83,6.54-4.19,12.93-6.51,19.32-1.21,3.34-2.75,6.57-4.28,9.79-2.87,6-6.11,11.92-8.69,18.07-2.8,6.68-2.57,13.82-1.76,20.88.69,6,3.44,11.26,7.23,15.87,2,2.43,4.53,4.45,7.24,7.06a32.35,32.35,0,0,0,1.36-4.17c1-6.23,1.93-12.45,2.75-18.7.44-3.33.29-3.18-3.09-3.68-6.34-.95-10.09-4.57-9.88-11.62.17-5.62,2.42-10.26,4.73-15,2.87-5.89,5.9-11.7,8.82-17.57C202.17,148.58,202.57,147.22,203.07,145.9Zm-44,76.53.34-.27c-3-3.25-5.88-6.7-9.13-9.73-11.67-10.9-20.56-24.07-29.93-36.81-6-8.16-12.71-14.86-22.33-18.7-5.73-2.28-11.36-2.31-17.11-1.51-2.77.38-5.4,1.75-8.68,2.88,6.94,6.56,13.14,12.84,21.11,17.07.57-1,1-1.94,1.67-2.8a10.19,10.19,0,0,1,12.45-3.16c6,2.92,9.61,8.27,13.31,13.42,3.37,4.7,6.36,9.66,9.48,14.54a14.31,14.31,0,0,1,1,2.57c-1.49-1.31-2.84-2.11-3.68-3.28-2.81-3.9-5.44-7.92-8.14-11.9-3.53-5.22-6.76-10.66-12.78-13.61-4.64-2.27-10.45.31-11,5.43a27.23,27.23,0,0,0,.39,8.35c1.76,8.9,3.58,17.59.68,26.76a30.53,30.53,0,0,1-8.08,12.77A59,59,0,0,1,82.7,229c12.47-4.86,17.69-13.67,18.52-26.78.31-5,.29-10,.68-14.92s3.69-7.37,8.46-6a15.17,15.17,0,0,1,9.32,8c2.89,5.59,5.3,11.43,8,17.11,2.34,4.87,4.84,9.62,9.84,12.51a18.34,18.34,0,0,0,12.21,2.25,6.65,6.65,0,0,1,5.95,1.66,44,44,0,0,0,5.14,3.64l.4-.56c-1.43-1.05-2.88-2.07-4.27-3.17s-2.68-2.26-4-3.4l.48-.52ZM122.8,60.3a34.63,34.63,0,0,0,.25,3.68c1.92,11.1,8.57,18.54,18.27,23.69a92,92,0,0,1,10,6.1c3.16,2.23,4.17,5.49,3.14,9.26-1,3.61-4.09,4.43-7.13,5a70.18,70.18,0,0,1-27.34-1.12c-5.13-1.14-10.48-1.53-15.48.49s-8.58,4.84-8.37,10.23c.09,2.29-.84,3.47-3.07,4a18.59,18.59,0,0,0-3.71,1.9l.18.42,7.05-2,.22.69-6.38,2.62a3.91,3.91,0,0,0,2.69.08c7.9-2.17,15.74-4.62,23.72-6.48a116.45,116.45,0,0,1,18.33-3c8.37-.56,16.76-.71,24.89-3,14.93-4.15,24.71-13.39,27.89-28.91a9.07,9.07,0,0,0-.2-2.09l-23.37,8.7c2.47,2.91,3.44,5.58,2.95,8.63-.64,4-3.14,6.35-6.61,8.4-11.21,6.62-23.43,7.21-36,6.51a18.58,18.58,0,0,1,5-1.65c3.85-.53,7.73-.76,11.59-1.24,7.33-.91,14.32-2.91,20.49-7.13,4.75-3.25,4.8-9.39-.21-12.06A103,103,0,0,0,148,86.6c-6.69-2.43-13.13-5.14-17.81-10.88C126.5,71.15,125,65.65,122.8,60.3Zm7.37,228.12-.87.61a13,13,0,0,1-1.43-1.64c-2.58-4.06-4.92-8.29-7.73-12.17-2.49-3.43-4.25-7.84-9.58-8.67a27.92,27.92,0,0,0,1.29,2.72c4.72,7.71,9.39,15.46,14.26,23.07a38.94,38.94,0,0,0,5.91,7.31c4.85,4.61,10.77,6.14,17.93,5.17-2.78-3.22-5.06-6.26-7.74-8.88a130.48,130.48,0,0,1-20.47-25c-1.07-1.75-2.19-2-3.93-1.51ZM303.85,171.57c-1.54.41-2.64.73-3.75,1-4.83,1.16-9.65,2.39-14.51,3.43-4,.88-8.16,1.45-12.21,2.33a42.24,42.24,0,0,0-5.47,2.07c1.32.49,2.32.6,2.38.92.44,2,1.9,1.44,3.14,1.36s2.31-.25,3.46-.4l12.63-1.61.19.86a18.85,18.85,0,0,1-2.38.6c-5.19.6-10.39,1.15-15.58,1.73-.89.1-3.27,3.28-2.75,3.82a3.9,3.9,0,0,0,2.72.9c8.18-.51,16.42-.67,24-4.68C300.52,181.33,303.23,177.54,303.85,171.57Zm-9.39-69.52-23.37,34,3.18.89,13-17.07c.14.74.25.94.19,1-3.95,5.21-7.72,10.56-11.95,15.53a8,8,0,0,0-2,7.28,62.26,62.26,0,0,0,5.89-5.4c3.77-4.52,7.25-9.28,11-13.84,4.45-5.43,6.4-11.51,5.26-18.49A36.3,36.3,0,0,0,294.46,102.05ZM220.84,30.2l.49.7L205.63,42l.25,1.19c1.46.13,3.23.84,4.34.27,5.38-2.74,10.62-5.78,15.84-8.82,4-2.3,7.84-4.76,12.09-7.35-1-.67-1.52-1.12-2.14-1.48-5.82-3.43-11.5-1.9-16.84.95-5,2.65-9.62,5.88-14.38,8.89-2,1.23-3.86,2.56-5.71,3.8,4.21,2.88,7.1.87,10.28-1.66C212.93,35,217,32.72,220.84,30.2ZM83.72,254a5.57,5.57,0,0,0-.4,1.2c-.21,6.94-.81,13.9-.5,20.81.39,8.7,4,12.7,11.55,15.25q-.6-10.38-1.18-20.67c-.19-3.4-.22-6.81-.64-10.18-.19-1.47-1.18-2.83-1.81-4.24l-1,.25-1,16.37h-.75a19.59,19.59,0,0,1-.24-2.28c0-3.57-.13-7.16.25-10.7.27-2.56-.4-4.1-2.8-4.94A12.19,12.19,0,0,1,83.72,254Zm109.89,13.62-.67-.58a20.66,20.66,0,0,0-2.9,2.86c-1.54,2.26-2.76,4.74-4.28,7s-3.32,4.58-5,6.86l-.45-.33,8.93-14.24-1-.74c-3.5,3.52-5.77,8.09-9.08,11.78s-6.56,7.95-10,11.8-6.92,7.39-10.89,11.61c3.63-.37,6.67-.34,9.5-1.1a14,14,0,0,0,5.86-3.35,78,78,0,0,0,14.77-20.17C190.33,275.39,191.88,271.48,193.61,267.66ZM223,250c-.76,1.44-1.88,2.55-1.8,3.58.4,5.21,1.12,10.4,1.71,15.6a20.91,20.91,0,0,1,0,2.24l-.74,0c-.79-5.9-1.57-11.8-2.37-17.85l-2.47,1V290.1a15.08,15.08,0,0,0,2.06-.67c6.05-3.24,7.92-8.76,8.13-15.14C227.74,266.17,226,258.38,223,250Zm49.33-118.57c2.54-3.93,4.92-7.3,7-10.86,4.35-7.53,9.11-14.92,9.84-24,.37-4.69-1.06-8.87-3.3-13.49-.43,1.12-.66,1.63-.83,2.15-1.52,4.72-2.74,9.57-4.62,14.14-2.18,5.27-5,10.29-7.41,15.47-1.33,2.83-2.43,5.77-3.63,8.67,6.09-6,9.74-13.45,13.9-20.61a50.72,50.72,0,0,1-9.6,17.82C270.94,124.07,270.56,127.05,272.28,131.44ZM76,283.09c.49-2.35.85-4.35,1.32-6.32,1-4.18,2.25-8.32,3.06-12.53a101.55,101.55,0,0,0,1.41-11.54c.07-1-.84-2-1.29-3l-.64.2-4,12.65-.85-.25q2.16-8.13,4.31-16.26c-2.52,3.27-2.52,3.27-5.46,2.29-2.39,7.11-5.49,14-5.44,21.76C68.51,275.85,71.43,279.59,76,283.09ZM22.75,106.94l.57-.23q5.19,9.74,10.39,19.47l.93-.21c.13-1,.64-2.15.32-3-1.13-2.84-2.57-5.56-3.84-8.35-4.28-9.46-8-19.11-10.09-29.34a8.77,8.77,0,0,0-.61-1.5c-4.76,5.07-4.76,19.65-1,25.59,2.3,3.61,4.33,7.39,6.5,11.09s4.36,7.37,6.55,11l.73-.16c0-1.38.48-3-.08-4.09-2.53-4.94-5.41-9.69-8-14.58A57.9,57.9,0,0,1,22.75,106.94Zm90.56,190.64c-2.45-12.7-7-24.27-12-35.66l-1,.3,3.42,17.37-1,.19c-1.07-4.83-2.38-9.62-3.11-14.5-.44-2.87-2-3.47-4.46-3.76a10.65,10.65,0,0,0,.07,1.39c1,6.22,1.88,12.47,3.1,18.65a23.83,23.83,0,0,0,7.39,13A12.08,12.08,0,0,0,113.31,297.58ZM74.62,60.88c-.37-.22-.57-.43-.78-.44-11.72-.95-23.41-1-35,1.46-7.12,1.51-11.45,6.35-14.6,13.16,5.26-1.81,10.05-3.54,14.91-5.1,8.4-2.68,17.17-2.76,25.84-3.48a16.54,16.54,0,0,0,3.28-1L68,64.58c-8.46-1.09-16.89.28-25.35.84A4.71,4.71,0,0,1,45,64.35c5-.45,9.92-.78,14.87-1.23S70,64.61,74.62,60.88ZM64.49,31.57c.87.44,1.62.89,2.42,1.23,3.5,1.5,7.1,2.82,10.52,4.48,4.48,2.17,8.86,4.54,13.21,6.95,1.91,1.06,3.57,1.33,5.51-.69L79.81,32.94l.57-.86c4.73,3,9.65,5.7,14.1,9.05,2.74,2.07,5,1.66,8,.61a8,8,0,0,0-1.12-1.2c-6-3.9-11.77-8.16-18-11.55C76.43,25.26,70.88,25.62,64.49,31.57Zm165.6,214.79c-2.91.74-3.51,2.18-3.17,4.59,1.12,7.79,2,15.61,3,23.43.31,2.49.59,5,.94,7.95,2.81-2.16,6-3.55,6.53-6.75.77-5,1.46-10.25.88-15.24s-2.72-9.85-4.3-14.72c-.25-.78-1.16-1.34-1.76-2-.27.93-.85,1.88-.74,2.76.26,2.13.95,4.21,1.25,6.34s.38,4.45.55,6.67l-.6.05C231.81,255.13,231,250.82,230.09,246.36Zm59.34-108.71.65.87c-3.64,3-7.12,6.19-10.95,8.89-4.39,3.09-5.33,4.2-4.75,8.47,4.46-3.56,8.79-6.86,12.93-10.38,5.77-4.9,10.93-10.33,12.62-18.06a43.29,43.29,0,0,0,.46-6.3,8.71,8.71,0,0,0-.87.24c-9.44,7.42-17.27,16.47-25.41,25.19-.3.32-.21,1-.3,1.5.56.06,1.28.37,1.66.14,2.39-1.47,4.8-2.94,7-4.64C284.91,141.73,287.13,139.63,289.43,137.65ZM279,73.48l.46-.66c-2.14-4.78-4.38-9.52-10.11-11a42.94,42.94,0,0,0-9-1.85c-5.88-.27-11.78,0-17.66,0h-7.83c1.51,2.35,2.88,3.44,5.21,3.29a98.16,98.16,0,0,1,10.71-.2c4.2.21,8.38.8,12.56,1.22l-.05.84c-8.29-.46-16.58-1.47-24.85-.06,6.84,1.14,13.77,1.53,20.51,2.88S272.31,71.57,279,73.48ZM2.69,141.79c-1,5.87-.1,8.1,3.66,11.88,4.53,4.57,10,7.62,15.79,10.11,4.07,1.73,8.16,3.43,12.23,5.14l.61-.71c-.95-1.24-1.64-2.93-2.88-3.62-3.73-2.08-7.69-3.76-11.54-5.64a30.32,30.32,0,0,1-3.22-1.87c-.94-.6-1.81-1.29-2.71-1.94C21,157,26,161.81,32.91,162.69c-.36-1.34-.84-2.71-1.79-3.32-7.88-5-15.83-9.93-23.77-14.85C5.89,143.62,4.39,142.79,2.69,141.79ZM95.4,14.41c.33.45.54.8.81,1.1q7.5,8.13,15,16.27a49.69,49.69,0,0,0,3.54,3.84c.57.51,1.6.51,2.42.74,0-.93.34-2.12-.11-2.76-2.4-3.48-5-6.82-7.54-10.22-.61-.82-1.16-1.69-1.74-2.54l1-.86a9.3,9.3,0,0,0,.8,1.72c3.11,4.21,6.13,8.48,9.47,12.49.69.83,2.62.62,4,.9.14-.73.64-1.71.34-2.15-3.86-5.68-7.43-11.64-11.91-16.81C107.6,11.7,99.86,11.3,95.4,14.41ZM64.32,43.08l.25-.78c.85.19,1.73.31,2.55.58,5.83,1.91,11.69,3.75,17.46,5.81,2.64.94,4.69-.11,7.66-1.25-2.27-.94-3.81-1.67-5.42-2.22-6-2.06-12-4.34-18.16-6-7.27-2-13.87-.15-19.86,5.23l2.13.39c3,.52,6.07.95,9.07,1.58,7.63,1.6,15.23,3.3,22.86,4.9a7.54,7.54,0,0,0,2.24-.2l.16-1.2ZM77.46,57.84V56.68c-9.2-3-18.92-1.4-28.31-2.85a22.86,22.86,0,0,1,4.35-.35c7.82-.33,15.64-.24,23.25,1.78,2.44.65,4.06-.1,5.87-1.65-7.51-1.58-15-2.88-22.59-4a32.91,32.91,0,0,0-16.36,2.11c-3.73,1.37-6.35,4.12-8.75,7.13,3.63,0,7.08-.54,10.54-.59,8.94-.14,17.88-.06,26.82-.11C74,58.13,75.74,58,77.46,57.84ZM63.85,257.3c-.14-6.55,3.9-11.65,5.67-17.54H65.25c-2.52,6.14-5.29,12.49-7.73,19-2,5.28.36,12,4.82,14.27a39.21,39.21,0,0,0,2.08-4.15c2.15-5.93,4-12,6.39-17.82,1.25-3.06,1.25-5.59-1.23-8.67ZM33.63,174.11c.5-3,.51-3.05-1.53-3.86q-13.5-5.34-27-10.64A17.57,17.57,0,0,0,2.42,159c1.44,5.31,3.6,9.56,8.32,11.71,5.26,2.38,10.67,4.45,16.1,6.45,2.73,1,5.62,1.57,8.75,2.41-.72-2.24-1.11-4-3.34-4.73-2.68-.84-5.31-1.89-7.91-3-1.72-.72-3.35-1.64-5-2.46l.32-.63ZM302.7,139.3c-9.38,6.21-18.22,12-27,17.94-.51.34-.72,1.12-1.06,1.7.72.11,1.58.53,2.15.28,3-1.35,5.93-2.91,8.93-4.31,1.18-.56,2.47-.91,3.7-1.35l.29.76c-4,1.91-7.86,4.14-12,5.62-2.95,1.05-3.09,2.84-2.91,5.7,3.2-1.47,6.24-2.61,9-4.2a134.79,134.79,0,0,0,14.49-9.06C302.23,149.39,303.16,144.78,302.7,139.3ZM199,264.91l-.69-.59a7.87,7.87,0,0,0-1.58,1.7c-1.8,3.65-3.39,7.4-5.26,11-3.32,6.4-6.64,12.81-11.54,18.25-1.61,1.78-2.66,4.06-4.09,6.32.84.18,1.37.49,1.76.36,3.49-1.19,7.13-2,9.75-5a67.3,67.3,0,0,0,12.43-23c1.05-3.17,2.12-6.34,3.17-9.51l-.91-.6c-.64.65-1.54,1.19-1.87,2-1.53,3.58-2.76,7.29-4.36,10.83a56.36,56.36,0,0,1-3.68,6.07l-.19-.21Q195.5,273.69,199,264.91ZM92.4,25.56l.51-.48c4.23,3.67,8.69,7.12,12.62,11.09,2.52,2.54,4.79,1.87,7.67,1-1.92-1.75-3.6-3.34-5.35-4.85-4-3.47-7.83-7.24-12.16-10.25-5.15-3.59-10.94-3.52-16.84-1C89,26.92,96.33,36.47,107.36,41.12a8.81,8.81,0,0,0-2-3.33c-3.7-3.45-7.53-6.78-11.27-10.18A18.59,18.59,0,0,1,92.4,25.56ZM215.56,47l-.13.73a8.31,8.31,0,0,0,2.83.64,25.44,25.44,0,0,0,5.29-1.25c7.72-2.71,15.21-6.12,23.38-7.48,1.34-.22,2.53-1.3,4-2.12-4.11-3.71-8-5.13-13.31-4-6.76,1.42-12.49,4.87-18.53,7.75-2.8,1.34-5.42,3.07-8.12,4.62l.29.72c4,0,7.11-2.75,10.76-3.84s7.29-2.41,10.93-3.63l.28.81Zm87.88,109.59c-10.37,5.13-21.66,6.66-31.17,13.12a7.51,7.51,0,0,0,3.92.61c2.1-.44,4.09-1.35,6.15-1.94,3.33-.95,6.68-1.81,10-2.71a3.63,3.63,0,0,1-2,1.55c-4.56,1.51-9.08,3.15-13.71,4.37-2.63.69-3.94,2-4.06,5.09,2.62-.73,5.08-1.36,7.5-2.11,5.83-1.8,12-2.78,17.05-6.6A15.28,15.28,0,0,0,303.44,156.59ZM33.09,137.74l1-.65Q23.47,119.47,12.8,101.72c-3.13,6.4-3.17,8.76,0,14.18A102.72,102.72,0,0,0,19,125.52c4,5.32,8.27,10.45,12.42,15.66l.89-.4a6.23,6.23,0,0,0-.39-2.35c-2.38-3.59-4.88-7.1-7.35-10.63L18,118.4l.72-.51ZM37,187.31l.49-.84c-.51-.45-1-1.14-1.55-1.31-1.19-.32-2.47-.26-3.68-.53-3.32-.72-6.61-1.54-9.92-2.31l.18-.76,14.22,2.52c-.47-1.23-.54-2-.8-2C25.46,179,15,175.91,4.3,172.81c.08,5.6,4,10.79,8.81,11.7,5.13,1,10.33,1.52,15.52,2.15C31.4,187,34.2,187.1,37,187.31Zm205.76,61.82-.52.28c-1.27-2-2.48-4.07-3.83-6a9.25,9.25,0,0,0-2-1.65,8,8,0,0,0-.14,2.52c1.87,6.89,3.81,13.75,5.76,20.61.73,2.59,1.53,5.17,2.55,8.55,1.51-1.87,2.84-3,3.56-4.5,2-4.19,1.64-8.58.19-12.84C247,252,245.4,248,243.72,244c-1-2.29-2.33-4.42-3.59-6.78-1.86,1.62-2.41,2.87-1.17,4.79C240.41,244.26,241.5,246.75,242.75,249.13ZM206.05,25.68l.59.65c-.59.57-1.17,1.17-1.78,1.72-3.07,2.79-6.18,5.54-9.19,8.39-.45.43-.46,1.32-.68,2A5.47,5.47,0,0,0,196.9,38q11.94-8.33,23.81-16.73a25.32,25.32,0,0,0,1.9-1.68c-4.85-1.74-9.43-2.72-13.46.24-6,4.4-11.62,9.33-17.4,14l-2.91,2.38c2.89,1,4.65.56,6.26-1.15a68.2,68.2,0,0,1,5.3-4.89C202.23,28.63,204.16,27.18,206.05,25.68ZM204.81,294.9a13.64,13.64,0,0,0,9.89-13c.25-7.5.11-15,.13-22.52,0-.6-.1-1.2-.15-1.8l-.88-.08q-.9,9-1.79,18l-1-.08c.4-5.46.8-10.93,1.2-16.44-2.1,0-2.5,1.2-2.69,2.64q-2,14.15-4,28.3C205.32,291.57,205.07,293.17,204.81,294.9ZM265.29,85.29c2.12-3.81.82-9.64-2.33-12.27-5.87-4.89-13-3.74-19.91-5,3,6,9.15,6,13.9,8.19l-.28.73-7.28-1.68a11.09,11.09,0,0,0,.38,2.76c.36.84.9,1.94,1.63,2.23C255.93,82,260.55,83.58,265.29,85.29ZM50,262.68l14-25c-2.78.05-4.75.37-6,2.81a54.58,54.58,0,0,1-3.66,5.62l-.35-.23c1.18-2.31,2.37-4.62,3.68-7.17-3.1-.28-5.73-.63-7,2.78-1,2.62-2.66,5-3.35,7.73C46.19,253.71,45.35,258.4,50,262.68ZM4.86,128.16l-.71.43c-.11,3.07-1.08,6.36,1,9.07a32.47,32.47,0,0,0,6.42,6.51c4.69,3.37,9.67,6.31,14.55,9.41,2.31,1.47,4.65,2.89,7,4.33l.62-.8a25.91,25.91,0,0,0-3.07-2.87c-3.14-2.14-6.45-4-9.59-6.2-2.5-1.73-4.83-3.7-7.24-5.56l.32-.42c6,3.94,12.08,7.87,18.38,12,.32-3.21-1.71-3.87-3.53-5.09A109.65,109.65,0,0,1,8.47,131.79C7.33,130.52,6.07,129.37,4.86,128.16Zm283.26,66.16,0,.78H274.43c1.06,1.56,1,3.68,3.4,3.84,2.65.18,5.3.49,7.95.45,8.24-.13,11.77-1.88,13.75-8.62-9.38-.86-18.72-1.31-28.22-.13,1.24,2.89,3.3,3.72,5.92,3.69C280.86,194.29,284.49,194.32,288.12,194.32Zm-106,78.81-.63-.42c-1.66.27-3.36.41-5,.84a8.74,8.74,0,0,0-3.21,1.53c-2.24,1.79-4.34,3.77-6.5,5.67l-.4-.4,6.42-6.42-.3-.71c-1-.08-2.52-.66-3.08-.18-4.6,4-9,8.24-13.52,12.39C158.6,288.77,166,290,169.18,287,173.78,282.71,177.84,277.8,182.14,273.13ZM14.5,129.21a87.94,87.94,0,0,0,16.78,15.13L8.15,114.89c-1.77,5-2.28,9.09.83,12.76,2.88,3.4,5.64,7,8.94,9.9,4.47,4,9.41,7.41,14.14,11.07l.56-.66C26.28,142,18.78,137.16,14.5,129.21Zm91.55,135.91-.81.4c.94,2.6,1.8,5.25,2.86,7.81,3.25,7.88,6.39,15.81,10,23.55,2,4.25,7.86,6.64,11.71,5.3L111,271.76l-.1.1,5.92,14.41-.52.23ZM40.85,84.89a3.47,3.47,0,0,0,1.08,0c5.18-2,10.37-3.89,15.48-6,.83-.34,1.29-1.53,2.36-2.88l-7.28.65-.24-.88c5.37-.48,10.46-1.52,13.52-6.47-6.57-.73-13,0-18.95,3.5C42.33,75.47,39.69,79.11,40.85,84.89ZM169.64,45.7l.51-.33a27.09,27.09,0,0,0-2.18-4.3,28.6,28.6,0,0,1-5.82-16.37,10.17,10.17,0,0,0-6.36-9.41c-.36,3.5-.47,6.81-1.06,10-1,5.41.46,10.16,3.4,14.55.81,1.22,1.93,2.62,4.12,2.09-1-2.58-2-4.84-2.78-7.19S157.75,30,158.85,27c.25.69.37,1,.45,1.26,1.66,6.4,2.2,13.45,9.48,16.67C169.12,45.06,169.35,45.43,169.64,45.7ZM127.16,26c2.54-2.75,2.84-3.37,1.52-5.94a60.54,60.54,0,0,0-5.38-8.92,9.67,9.67,0,0,0-12.36-2.65c4.55,7.28,9.1,14.54,13.69,21.9,1.8-1.41,2.17-2.69,1.1-4.61-2.39-4.26-4.56-8.65-6.82-13l.78-.41C122.14,16.79,124.58,21.25,127.16,26ZM268.85,56.75c-2.46-2.76-4.31-4.91-7.53-5.48C249.81,49.22,239,52.45,228,55.46a3.25,3.25,0,0,0,2,.95c5.5-.7,11-1.58,16.48-2.26a46.27,46.27,0,0,1,5.65,0c-6.93,2.18-14.32,1.72-21.15,4.13Zm-6.23,170.54-.3.55a34.21,34.21,0,0,1-4.39-2.93,23.9,23.9,0,0,0-15-6.45,2.56,2.56,0,0,0-3,2c2.89.75,5.73,1.15,8.27,2.24s4.78,2.93,7.18,4.38a12.36,12.36,0,0,0,9.33,1.54,4.16,4.16,0,0,0,2.41-1.82c.22-.37-.64-1.57-1.24-2.17a37.82,37.82,0,0,0-4.61-4.17c-4.5-3.21-9.24-5.89-15-6-1.68,0-2.78.62-3.41,2.67C251.39,217,256.73,222.64,262.62,227.29Zm-54-213.36c-4.36-2.54-8-1.6-11,1.05a78.18,78.18,0,0,0-8.22,8.26c-2.9,3.35-5.47,7-8.19,10.49l.52.82c1-.42,2.19-.61,2.86-1.32,3.07-3.25,6-6.66,8.95-10,.68-.75,1.49-1.4,2.25-2.09l.51.46-11,13.08.86.75Zm-84,257.44c6.29,12.18,18.86,19.27,25,14.29-3.82-3.72-7.73-7.37-11.43-11.23-1.37-1.42-2.53-2.48-4.62-1.48l3.33,5.22-.78.81C133.47,274.56,130.65,270.37,124.63,271.37Zm-89.1-81.8L6.23,186c1.77,4.9,4.57,7.71,8.73,8.37a151.64,151.64,0,0,0,15.37,1.27c.72,0,1.48-.79,2.23-1.21l-.22-.89-7.26-1C28.44,190.64,32.78,194.28,35.53,189.57Zm2.85-80.94c2.48-2.27,2.47-2.27,2-5.11-.61-3.68-1.19-7.36-1.81-11A10,10,0,0,0,38,91c-4.08,2.14-7,4.9-7.78,9.48-1.17,6.72,2,12.16,5.19,18.24.44-2,.46-3.62,1.11-4.88,1.3-2.52.81-4.69-.34-7a38.53,38.53,0,0,1-1.73-5.36l1-.33C36.41,103.52,37.35,106,38.38,108.63ZM189.57,299.15a12.6,12.6,0,0,0,2,0c5.55-1.25,9.87-4,11.34-9.87,1.17-4.66,2.07-9.38,3-14.07.31-1.49.47-3,.7-4.51l-.6-.14q-1.93,6-3.86,12a35.91,35.91,0,0,1,1.57-9c.9-2.93,2-5.78,1.44-9C202.08,276.83,196.38,287.92,189.57,299.15ZM176.82,37.26c-1.24-4.16-2.4-7.86-3.44-11.6A11.82,11.82,0,0,0,167.85,18a3.15,3.15,0,0,0-2.72-.12c-.56.38-.7,1.68-.69,2.57,0,1.8.62,3.64.4,5.39-.91,7,3.26,11.77,7.36,16.75a4,4,0,0,0,.52-2.74c-1.34-3.38-3-6.64-4.3-10-.47-1.19-.28-2.63-.4-3.95l.87-.1,4.91,14Zm67.42,201.05-.53.52,10.9,26.3c.84-1,2-1.81,2.15-2.75.46-2.72,1.36-5.78.58-8.22-1.52-4.68-4.15-9-6.18-13.53-.92-2-2.24-2.39-4.46-1.56,1.18,2.33,2.3,4.55,3.43,6.77C247.66,243.71,246.76,240.33,244.24,238.31Zm-24-187.9,0,.76a12,12,0,0,0,3.12,0c4.55-1.27,9-2.77,13.61-4a39.1,39.1,0,0,1,5.75-.7l.1.83a87,87,0,0,0-18.78,5.44l.23.91,35-7.57c-.68-.76-1.14-1.77-1.83-2-2.59-.74-5.41-2.05-7.87-1.62-6.35,1.12-12.57,3-18.81,4.7C227.27,48.14,223.77,49.32,220.24,50.41ZM53.11,203.19l-1-.27a24.35,24.35,0,0,1-13,7.62,5.26,5.26,0,0,1,1.53-1.26,97.43,97.43,0,0,0,8.64-5.36c2.16-1.65,3-2.3,1.17-6.73C47.14,202.33,42,204.88,37.29,208c-2.77,1.85-4.51,4.41-3,8.24,7.46-1.1,13.89-4.15,18.78-10C53.55,205.66,53.11,204.24,53.11,203.19Zm3.76,9.88c-5.23,4.66-11.18,7.49-14.44,6.56a42.34,42.34,0,0,0,4.64-1.88,61.75,61.75,0,0,0,7.79-4.67c2-1.45.72-3.69.9-5.36-1,.79-1.85,1.56-2.79,2.21-3.9,2.73-7.38,6-12.42,6.92-3.78.67-5,2.4-5.2,5.32.13.11.24.26.38.3a4.75,4.75,0,0,0,1,.19,28.56,28.56,0,0,0,19.41-4.77C58.62,216.17,58.76,215.85,56.87,213.07ZM268.19,90.64c-.55,3.2-1.05,6.36-1.64,9.51s-1.26,6-1.77,9a5.68,5.68,0,0,0,.52,2.11l.6-.15c.67-2.32,1.33-4.63,2-7l1,.29c-.56,2.38-1.46,4.74-1.57,7.14s.62,4.75,1.07,7.77C275.18,109.42,274.85,93.81,268.19,90.64ZM246.91,211.92a46,46,0,0,1,5.25,1.34,36.57,36.57,0,0,1,13.06,8,6.25,6.25,0,0,0,6.28,1.59c-.68-1.47-1.2-2.58-1.7-3.71-3.2-7.17-8.95-11.11-16.38-12.88-1.42-.34-2.43.14-2.5,1.91,2.82,1.29,5.76,2.29,8.31,3.9s5.12,3.16,6.36,6.34a3,3,0,0,1-.77-.11,4.83,4.83,0,0,1-.8-.61c-3.25-3.22-6.66-6-11.32-7.23C250.35,209.81,248.81,209.8,246.91,211.92Zm-68.17-184L190,16.07l.61.58c-.61.75-1.21,1.51-1.85,2.24-2.67,3.06-5.4,6.08-8,9.19a7.9,7.9,0,0,0-.89,2.39l.88.37c5.64-7.06,11.28-14.11,16.95-21.22-2.35-1.36-5.78-.25-9.14,2.62C183.61,16.48,177.81,25.42,178.74,27.93Zm78.74,176.9c4.14,2.48,8.46,4.39,11,8.59.9,1.49,1.86,2.94,2.86,4.36a4.75,4.75,0,0,0,5.17,2.23c-2.34-8.09-5-15.75-12.88-20.32-.71.87-1.25,1.55-2,2.48,5.72,2.6,9.07,7,11.17,12.5-.51-.16-.71-.56-1-.92-2.79-4-5.28-8.23-10.27-10.07A3.07,3.07,0,0,0,257.48,204.83ZM41.88,227.42a40.79,40.79,0,0,0,5.66-.54,42.21,42.21,0,0,0,7.74-2.36c1.75-.77,2-2.43,1.16-4.27-4.92,3.37-10.58,4.16-16.31,4.69a7,7,0,0,0-5.61,3.84c6.62,2.41,13.06,1.91,19.48,1.08,3-.39,3.13-.84,2.26-4C46.68,228.6,45,228.85,41.88,227.42ZM27.53,202.26l-6.64-.46.05-.63c1.7-.11,3.4-.29,5.11-.32,2,0,3.56-.54,3.71-3.13L9.67,196.46a10.43,10.43,0,0,0,9,8.11c1.82.17,3.66.13,5.46.41C26.24,205.32,27.1,204.28,27.53,202.26ZM152.61,15l-1-.15c-1.59,3.06-3.48,6-4.66,9.2a45,45,0,0,0-2,9.38c-.28,2.09,1.09,2.82,3.14,2.42-1.44-4.92-.89-9.77.79-11.26,0,2.63-.19,5.67,0,8.68.28,3.35,1.78,4.68,6.11,6.19a3.92,3.92,0,0,0-.22-1.23c-3.53-5.76-2.64-12-2-18.17A33.09,33.09,0,0,0,152.61,15ZM49.46,239.05c-2.62-1.25-4.54-1.05-5.81,1-.39-.82-.58-2-1.14-2.22-.88-.35-2.46-.48-3,.05-3.43,3.49-4.71,10.3.13,13.76C42.87,247.54,46.08,243.4,49.46,239.05Zm203.47-.19L262.77,255l.84-.15a13.61,13.61,0,0,0,1.17-2.84,17.31,17.31,0,0,0-2.51-12.14c-1.3-2.21-2.89-2.34-5.12-1.23,1,1.66,2,3.22,2.93,4.78C255,238.37,255,238.37,252.93,238.86Zm26.82-33.44c.89,3.19.89,3.18,3.52,3.36.83.05,1.65.17,2.47.23,4.88.35,7.84-1.33,10.16-5.94l-17.68-2c.15,3.94,3,3.16,5.29,3.93ZM177,23c3.26-5.25,6.44-10.4,9.63-15.55a4,4,0,0,0-5.35-.31c-3.66,2.38-5.89,6-8.2,9.55-.29.45.15,1.38.33,2.61L177.86,13l.64.41c-.82,1.58-1.68,3.15-2.47,4.76S174.07,21.48,177,23Zm77.36,209.07-.29.59a14.38,14.38,0,0,1-1.44-.65,69.2,69.2,0,0,0-6.39-3.83,17.77,17.77,0,0,0-5-1.09c-.33,0-.9.55-1.1,1-.1.19.43,1,.69,1,4.53.2,8,2.91,11.94,4.69,3,1.36,5.8.7,7.33-1.4-9.92-7.24-16.27-10-20.83-9,.24,2.09.23,2.21,3.07,2.46C247.27,226.32,250.87,229.11,254.39,232.11Zm-46-160.7.26,1c1.16-.18,2.33-.29,3.47-.55,7.33-1.71,14.71-2.57,22.2-1.15,4.49.85,8.34,2.63,10.68,6.88.38.69,1.38,1,2.09,1.55l1-1a60.65,60.65,0,0,0-4.14-5.49c-3.21-3.43-7.82-3.55-12-4.17-7.31-1.08-14.54.28-21.66,2.1A12.67,12.67,0,0,0,208.34,71.41ZM41.61,109.1l-.81,0C37.33,114.44,36.54,120,39.25,126c3.43,7.6,8.86,13.76,14.08,20.08.15.18.55.15,1.1.29A6,6,0,0,0,54,145c-3.33-4.74-6.78-9.39-10-14.21-2.35-3.52-4.69-7.18-4-11.72.39-2.52,1.21-5,1.72-7.49A9.3,9.3,0,0,0,41.61,109.1ZM142.7,33.71c-.44-6.5,2.52-11.67,5.37-16.93.59-1.09.39-2.61.63-4.58-2.48,2.25-4.8,3.66-6.13,5.71a102.91,102.91,0,0,0-5.49,10.78c-.92,1.88.23,2.1,1.7,2.09.52-5.65,1.82-8.36,4.45-9.37C139.45,31.06,139.42,31.52,142.7,33.71ZM95.54,71.46c-8.07-.29-15.46-2.73-23.13-1.4-4.78.83-8.54,3.16-10.74,7.76,1.17-.08,2.48-.17,3.15-.87a16.86,16.86,0,0,1,11-5A34.11,34.11,0,0,1,89.17,73C91,73.53,93.55,74.84,95.54,71.46ZM124.29,4.93l6.86,14.51c3.59-1.33.27-3.44,1-5.33l1.91,2.1c1.68-1.74,1.68-1.78.07-4.8C131.16,5.92,128.58,4.14,124.29,4.93ZM265.81,197.81c2.29,2.48,4.79,4.44,6.31,7,2.25,3.8,3.77,8,5.7,12,.33.68,1.18,1.1,1.79,1.64.22-.75.75-1.57.61-2.25a40.73,40.73,0,0,0-2.14-8.17,96.65,96.65,0,0,0-5.48-9.9c-.35-.58-1.12-.91-1.7-1.36l-.43.45c2.14,2.69,5,4.9,5.78,9.05C272.87,202.9,271.53,197.61,265.81,197.81Zm-15.2-51c2.31-2.54,4.41-4.63,6.26-6.93,1.66-2.06,3.06-4.34,4.54-6.54,2.26-3.36,4.72-6.58,5.4-10.78.44-2.79-1.14-7.74-3.83-9.28a32.65,32.65,0,0,0,.64,3.52c1.09,3.53,1.34,7-.49,10.37-2.73,5.06-5.74,9.88-10,13.88C251.76,142.4,249.94,143.78,250.61,146.81ZM36.93,202.54l-.48-.58a17.78,17.78,0,0,0,2.34-1.53q2.93-2.62,5.69-5.41c.24-.24,0-1-.06-1.49-.45.15-1.21.19-1.32.47-1.17,3.17-4.06,4.39-6.57,6.11s-5,3.86-4.43,7.65c6.95-3.12,12-5.42,16.37-12.18l-1.9-1.18C44,198.1,41.32,201.38,36.93,202.54Zm18-36.49.53-.49c-1.18-1.18-2.3-2.43-3.56-3.52-4.13-3.56-8.44-6.92-12.41-10.65-2.06-1.93-4-4.29-3.48-7.56.36-2.24.41-2.23-2.2-2.94A10.72,10.72,0,0,0,36.78,151C42.41,156.3,48.55,161.06,54.5,166,54.59,166.12,54.82,166.05,55,166.05ZM37.11,127.3l-1,.19a11.86,11.86,0,0,0,1.23,11.92c3.68,5.25,8.36,9.82,12.7,14.59a25.3,25.3,0,0,0,3.53,2.76l.44-.43c-.4-.54-.75-1.12-1.2-1.62-3.72-4.13-7.52-8.19-11.15-12.39-3-3.49-5.13-7.32-3.87-12.27C38,129.25,37.37,128.22,37.11,127.3Zm96.65,142.9.44-.87c-1.31-.53-2.59-1.39-3.94-1.51a14,14,0,0,1-10.12-5.6c-3.49-4.39-5.07-9.58-6.54-14.84a22.88,22.88,0,0,0-1.41-3.17l-1,.44c1.82,5.09,3.39,10.3,5.53,15.26C119.9,267.25,125.77,270.59,133.76,270.2Zm56-195.49c1.87,1.34,3.37,3.26,5,3.43,3.7.37,7.49-.13,11.32-.28C204.83,73.42,195.48,71.48,189.78,74.71ZM71.4,65.13l.28,1.27c1.24-.15,2.49-.26,3.72-.43,3.42-.49,6.9-1.68,10.23-1.33,4.56.47,9,2.13,13.51,3.21a30.34,30.34,0,0,0,3.59.43c-.26-.83-.55-1.16-.92-1.3-7.61-2.77-15.36-4.93-23.55-4.1C75.92,63.12,73.68,64.36,71.4,65.13Zm164.1.55c-.53-2.44-1.43-3.39-3.72-4a24.32,24.32,0,0,0-13.53-.09l-16.46,5.05.22.89a19.26,19.26,0,0,0,2.41-.42c4.31-1.23,8.55-2.82,12.92-3.68,5.64-1.12,11.4-1.84,16.53,2C234.23,65.73,234.9,65.61,235.5,65.68Zm14.12,88.68c.74-.09,1,0,1.18-.16,6.45-4.92,12.74-10.06,17.41-16.78,2.13-3.06,1.91-6.63.28-10.12a3.6,3.6,0,0,0-.81,2.11,14.82,14.82,0,0,1,.16,2.45A19.5,19.5,0,0,1,262.4,142c-3.81,3.57-7.64,7.11-11.44,10.68A17.8,17.8,0,0,0,249.62,154.36ZM25.23,206.94,15,208.19c-.28,3.77,1.62,5.91,5.56,6.14,1.49.09,3.59.74,3.86-2.1l-3.09-.59C23.1,210.47,25.76,210.54,25.23,206.94Zm170.11,35.33-1.12-.35c-.76,2.17-1.66,4.3-2.25,6.52a49.62,49.62,0,0,1-7.79,16.85,10.37,10.37,0,0,1-8.14,4.64c-1.27.07-2.52.23-3.78.34a8.45,8.45,0,0,0,8.7-.33,17.85,17.85,0,0,0,7-7.92c2-4.39,3.88-8.8,5.63-13.28A58.07,58.07,0,0,0,195.34,242.27ZM56.89,232.93l-.1-1a3.34,3.34,0,0,0-.7-.08c-6.26.65-12.5,1.52-18.79,0-.93-.24-2.16.65-3.74,1.18,4.7,2.05,16.23,3.79,20.39,3.17a6.93,6.93,0,0,0,1.95-1l-.25-.74c-3.09.42-6.24,1.61-9.34-.34Zm45.81-22.17-.49,0c-.53,1.46-1.1,2.91-1.59,4.39-.33,1-.93,2.1-.76,3,.59,3.26,4.82,6.85,8,6.52-1.06-3.59-2.11-7.12-3.34-11.27l-1.38,2.81-.43-.07Zm-5.63,49,.75-.54a9.11,9.11,0,0,0-1.48-1.9,12.54,12.54,0,0,1-5.17-9.84c-.22-4.54.22-9.12.26-13.68,0-1.79-.27-3.58-.46-5.81-.68.62-.89.72-.89.83-.19,6.22-.51,12.44-.48,18.66C89.63,253,92.77,256.79,97.07,259.74Zm103.18,1.62c3.44.11,6.18-1.41,7-4.14a73,73,0,0,0,2.26-9.92c.72-4.52,1.13-9.1,1.67-13.65l-.95-.22c-.23.94-.52,1.86-.68,2.81-.87,5.23-1.62,10.49-2.59,15.7-.61,3.27-2,6.15-5.24,7.72C201.19,259.92,200.86,260.64,200.25,261.36ZM134.7,27.22a4.42,4.42,0,0,0,.5-.67c2.24-5,4.87-9.79,9-13.61.9-.84,1.21-2.33,1.79-3.52L145.25,9a34.73,34.73,0,0,0-10.76,11.89l2.63-2.94a24.2,24.2,0,0,1-2.36,4.72C134,24.06,132.71,25.6,134.7,27.22ZM250.21,167.94l.54.81c.23,0,.53.13.7,0,6.08-3.49,12.35-6.72,18.16-10.61a6.55,6.55,0,0,0,2-8.66c-.46.72-1.12,1.26-1.11,1.8,0,3.57-1.84,6-4.65,7.72-3.73,2.28-7.62,4.3-11.44,6.45C253,166.28,251.62,167.12,250.21,167.94ZM98,46.32c9-2.63,14.38,4.83,21.57,7.33-2.2-4.36-6.22-6.36-10.43-8.2A10.81,10.81,0,0,0,98,46.32Zm107-.77V44.7c-2.07-1.45-4.08-3.19-6.92-2.17-5.71,2-9.6,6.34-13.26,10.91,2.83-1.69,5.39-3.75,8.08-5.62s5.8-3.56,9.48-2C203.05,46.08,204.08,45.65,205,45.55Zm-31.12,39c-3.43-3.59-10.49-4.29-14.74-1.27,2-.25,2.7,2.9,4.8.08l1.63,4.09ZM194,61.72l.28.82a15.25,15.25,0,0,0,2.26-.57c4.7-1.9,9.38-3.84,14.07-5.77,4.14-1.71,8.16-2,12.13.62.87.58,2.14.56,3.23.82-5-4.74-7.28-5.38-13.39-3.44-4,1.28-7.88,3.12-11.8,4.71C198.55,59.84,196.3,60.78,194,61.72ZM168,13.09l2.49-3.56c-.57,4.68-.57,4.68.67,5.48l6.3-11c-4,0-9.39,3.75-10.19,6.63C167.11,11.1,167.54,11.72,168,13.09ZM107.34,75.41c3.12,1.47,3.12,1.47,5.11-2-4.36-2.22-12.44-.64-13.68,2.84l8.9,1.18ZM35,160.74C34.63,167,47.1,179,53.63,179.4a6.94,6.94,0,0,0-.81-1c-3.09-2.36-6.18-4.72-9.3-7-2.93-2.18-6-4.16-6.51-8.32C36.94,162.36,36,161.8,35,160.74Zm153.54,105.6a11.32,11.32,0,0,0,9.6-7.22,94,94,0,0,0,4.05-11.7c.85-2.92,1.23-6,1.82-9l-.72-.23a4.56,4.56,0,0,0-.85,1.27c-.43,1.94-.82,3.9-1.12,5.87-1.18,7.66-3,14.9-11.1,18.44C189.62,264.07,189.34,265.07,188.53,266.34Zm-79.67-202,.35-1c-2.42-1.18-4.79-2.49-7.28-3.51-5-2-10.08-4-15.59-3.85-1.83.05-3.64.91-5.46,1.4l.2.92a10.84,10.84,0,0,0,2.75-.23,12.54,12.54,0,0,1,8.77.13c4.47,1.73,8.9,3.58,13.37,5.33A28.69,28.69,0,0,0,108.86,64.31ZM270,247.26c2.18-2.45,2.18-8.87.18-10.65-.5-.45-1.47-.39-2.64-.66l1.2,3.77c-1.78-.8-2-4-4.86-2.26ZM67.84,164.06c-.57-.64-1.1-1.32-1.72-1.91-4.9-4.65-8.81-9.72-7.75-17.09.09-.63-.42-1.34-.76-2.36C54,149.27,60.15,162.79,67.84,164.06Zm9.88,6.71c0-1.52.53-3.27-.12-4.19-1.27-1.82-3.2-3.18-5-4.85-1,6.44,2.07,12.65,6,12.53v-3.81ZM52.19,186.53c-2.48-1.45-5-2.84-7.42-4.36-2.75-1.73-5.37-3.59-6.08-7.12-.23-1.15.41-3-1.64-2.91-.32,0-.52,2.35-.68,3.61,0,.38.25.78.36,1.18C37.84,181.11,47.48,186.81,52.19,186.53ZM115.07,60.82l.25-.84c-6.36-4.27-12.83-8.35-20.6-9.68a6.28,6.28,0,0,0-6.2,1.84c1.27,0,1.9,0,2.53,0,1.37-.12,2.92-.78,4.09-.36,3.86,1.39,7.62,3.07,11.34,4.83,2.23,1.06,4.28,2.51,6.45,3.69A8.83,8.83,0,0,0,115.07,60.82Zm43.22,7.54a3.86,3.86,0,0,0-1-.75,15.15,15.15,0,0,0-11.1-.36c-1,.37-2.54,1.23-2.58,1.92-.05,1,1,2.11,1.92,3.67l.69-3.4,1,1.46Zm72.54,99.25-6.32,2.33a60.08,60.08,0,0,0,7.26-1.31c1.79-.31,3.5-.44,4.14-2.51a5.61,5.61,0,0,0-1-5.75l-6.86,6.44ZM66.72,158.17c-.31-5.06-4.65-7.49-6.5-11.89-1.54,5.76,2.17,10.81,7.13,14.5l.57-2.88Zm60.13-76.84c.17-.6.65-1.4.43-1.76a22.23,22.23,0,0,0-3.64-4.94c-1.34-1.2-5.85,1.07-7.1,3.46Zm50.7-3.11A17.74,17.74,0,0,0,179,81c.38.48,1.24,1.06,1.7.93,2.14-.61,4.22-1.44,6.37-2.22-3.44-3.5-10.8-4.43-13-1.56l3,2a6,6,0,0,1,0-1.12A4.36,4.36,0,0,1,177.55,78.22ZM117.14,266.15c-.31-.34-.55-.84-.94-1-4.33-1.83-6.28-5.51-7.32-9.71s-1.62-8.29-2.48-12.43a23.19,23.19,0,0,0-1.1-3l-.8.29c.29,1.52.51,3.05.87,4.55,1.24,5.14,2.38,10.31,3.84,15.38C110.29,263.89,113.09,265.9,117.14,266.15ZM272,161c-.39.61-.75.92-.77,1.25-.16,2.74-1.76,4.41-4.05,5.55-3.48,1.74-7,3.43-10.48,5.16-.69.34-1.33.79-2,1.19l.21.69a11.67,11.67,0,0,0,2.14-.21,14.63,14.63,0,0,0,3-1.13c3.49-1.87,7-3.69,10.36-5.77C272.31,166.59,273,163.31,272,161ZM106.61,263.36c.15-.42.29-.6.24-.71-.12-.29-.26-.69-.5-.8-3.17-1.37-3.58-4.42-4.61-7.19-1.75-4.71-1.67-9.58-1.75-14.47a28.59,28.59,0,0,0-.56-3.69c-.59.85-.82,1-.84,1.23A50.71,50.71,0,0,0,101.15,258C102,260.69,104.21,262.12,106.61,263.36Zm110.74-33.19-.83,0a4.46,4.46,0,0,0-.33,1.08c-.41,5.78-.79,11.55-1.2,17.33a7.34,7.34,0,0,1-3.45,6,11.08,11.08,0,0,0-1.82,2.13c3.37-.24,5.6-2.13,6.05-5.38.71-5.07,1.13-10.19,1.56-15.3C217.49,234.07,217.35,232.11,217.35,230.17ZM53.5,172.71l.52-.6a10.56,10.56,0,0,0-1-1c-3.66-3-7.42-5.84-11-9-2.51-2.24-5.93-4-5.77-8.18,0-.34-.79-.71-1.49-1.3-.63,2.88.5,4.69,1.91,6.32a33.57,33.57,0,0,0,4.38,4.38C45.19,166.54,49.37,169.59,53.5,172.71Zm60.3,66.63c-1.07-2.56-2.1-5-3.16-7.52l-1.58.71c-.57-2.35-1-2.52-4-1.73C105.61,235,109.59,239,113.8,239.34Zm76.12-179.2c3.29-2.22,5.92-4.17,8.72-5.84,4.34-2.58,8.7-5.39,14.19-3.21.63.26,1.54-.17,2.31-.28l0-.79c-2.57-1.21-5.16-2.11-8.19-1.22-6.32,1.86-11.09,6.26-16.38,9.81C190.34,58.75,190.31,59.15,189.92,60.14ZM84.57,199.57c.3-3.51-3-3.86-4.56-5.73-.22,3.82.2,7.31,3.9,9.26.51.27,1.84.09,2-.24a32.93,32.93,0,0,0,1.3-4.37c-.53-.11-.64-.17-.69-.13ZM170.41,76.7c.69,0,1.55.27,2.05,0,5.59-3.38,10.62-1.58,15.54,1.53.55.35,1.14.65,2.06,1.17C188,72.6,178,71.16,170.41,76.7ZM90,204.61c-1.71,4.48-.42,8.55,3.27,10.43.64-1.61,2.24-3.17-.19-4.64C94.71,207.34,94.51,207,90,204.61Zm-58.91-3.77.51.32c2.49-1.74,5.12-3.33,7.42-5.29,1.17-1,1.75-2.68,2.59-4.05l-.61-.4-4,3.11-.25-.34L40,190.07l-1-.7C35.78,192.76,33.68,197,31.06,200.84Zm215.1-53.58c-3.59,2.67-5.63,6.4-4.7,8.25l-2.59.47,1.62,2.82a12.54,12.54,0,0,0,2.21-1.35C245.57,154.82,245.85,151.31,246.16,147.26Zm-90-66.47.16.77c2.24-.55,4.46-1.43,6.72-1.57a21.79,21.79,0,0,1,7.09.8c2.11.59,4,1.88,6,2.87C172.94,77.87,160.91,76.48,156.2,80.79Zm31.3-8.09c4.23-.28,8.18-1.32,11.75-.57s6.81,3.27,10.19,5C207,71.25,195.06,67.74,187.5,72.7Zm22.13,124.2a15,15,0,0,1-2.9,1.28,18,18,0,0,1-3.39,0c-.21,2.21-.43,4.46-.64,6.76A7.83,7.83,0,0,0,209.63,196.9Zm9.76,9.88c-.11,1.3-.14,2.54-.34,3.76s-.54,2.46-.88,3.92c4.31-1.47,6.69-6.3,5.28-10.13l-3.36.56,1.85,2.16ZM80.65,182c-.76,5.4,2.84,10.82,6.27,11.38.23-1.63.46-3.24.79-5.5l-2.77,2.3c0-1.46.37-2.67-.08-3.32A52,52,0,0,0,80.65,182ZM137.19,12.46c3.3-1.3.69-3.28.94-5a7.76,7.76,0,0,0,1,1c.55.4,1.17.73,1.76,1.09a5.88,5.88,0,0,0-.16-2.25c-1.4-2.58-3.76-3.48-7.13-3.55C134.85,6.85,136,9.61,137.19,12.46ZM270.42,139.23c-.27.7-.59,1.38-.81,2.1a25.45,25.45,0,0,1-1.17,4c-1.93,3.81-5.14,6.37-8.67,8.62-3,1.94-6,4-9,6a1.47,1.47,0,0,0,1.48.08c5.07-3.67,10.31-7.15,15.1-11.16C270.1,146.59,272,143.41,270.42,139.23Zm-47.08,59.26c4.48-2,7.09-6.08,6.18-9.73l-4.5,1.06,1.4,1.3c-.83.52-1.95.82-2.1,1.38A57.5,57.5,0,0,0,223.34,198.49ZM163.1,70.35c3.12-.73,6.25-2.1,9.35-2s6.39,1.54,10.15,2.55c-3.2-4-7.18-4.63-11.25-4.24C168.31,66.92,165.07,67.37,163.1,70.35Zm40.21,153.49-.84,0c-.3,1.68-.51,3.39-.92,5.05-1,3.95-3,7-7,8.55-1.08.39-1.85,1.59-2.77,2.42l.59.62c5.1-.21,7.14-4.3,9.09-8C202.78,229.9,204.37,227,203.31,223.84Zm78.16-8.8c1.19.8,1.84,1.6,2.42,1.55,2.74-.22,5.61-.4,7.45-3.91l-9.62-1.15-.32,1,2.85,1.76ZM178.18,50.31c1.14-1.28,2.23-2.6,3.41-3.84,3-3.15,6.11-6.19,11.14-4.77.43.12,1.06-.45,1.75-.78C189.66,36.39,182.79,41,178.18,50.31Zm37.59,142.36,1.66.68c-1,.74-2,1.07-2.17,1.64-.74,2.58-1.26,5.23-1.86,7.86a12.11,12.11,0,0,0,5.69-7.55C220,191.93,219.6,191.48,215.77,192.67Zm16.54-5.33-.72-.12a31.78,31.78,0,0,1-.41,3.91c-1.08,4.68-4.48,7.32-8.48,9.42a16.08,16.08,0,0,0-2,1.51C228.26,201.94,233.76,194,232.31,187.34ZM67.7,167.47c-3.24,7.33,2.42,18.92,9,18C68.31,182.05,67.81,174.87,67.7,167.47Zm15,64.9-.8-.11c-1.43,3.51-1.25,7.31-.94,11,.36,4.25,2,7.87,6.15,10.19-1.73-3.48-4-6.52-4.71-9.89C81.66,240,82.5,236.12,82.67,232.37ZM153.58,76.73c.46.32,1.35,1.4,1.95,1.26a54,54,0,0,0,6.2-2.18,8.36,8.36,0,0,0-11.78.74ZM147,84l8.66,1.69c2.63.51,4.25,3.53,7.6,3.26C159.18,84,152.21,81.28,147,84Zm5-22.32.35-.84c-2.45-2.16-5-4.34-8.47-4.45-2.34-.08-4.7.27-6.23,2.42a5.39,5.39,0,0,0-.52,1.41,3.91,3.91,0,0,0,1.42-.25c3.73-2.51,7-2.3,10.42.53A10.57,10.57,0,0,0,152.05,61.63Zm60.78,149.23c-1.94.58-5.08,7.28-4.22,8.91a10.72,10.72,0,0,0,5.67-9.07,4.05,4.05,0,0,0-.46-1.81c-.07-.14-.73,0-1.12,0Zm-125-27.56c-.3-2.32-.83-4.09-.68-5.8.31-3.54.2-4-3.15-5.26C83.18,176.53,84.49,180.86,87.82,183.3Zm41.4-144.8c1.82-3.58,2.42-8.26-.23-9.68C125.89,33.17,125.93,36.85,129.22,38.5ZM239.86,195.88c2.95.33,7.49-3.82,7.23-6.78,0-.34-.49-.95-.59-.92-1.24.39-3,.53-3.59,1.41A40.58,40.58,0,0,0,239.86,195.88ZM37.08,236.7l-6.87-2c-.93,2.83-.19,4.91,1.39,7.09Zm38.46-42.28c-.59-.7-.81-1.18-1.18-1.36-4.19-1.95-6-5.43-6.6-9.82-.14-1-1-2-1.84-3.44C64.65,185.07,69.26,193.76,75.54,194.42Zm40.09-122.3a16.7,16.7,0,0,0-13.21-1.67c-4.4,1.12-5.91,2.36-6.57,5.79C101.64,70.07,108.39,70,115.63,72.12ZM24.94,220.92c2.22-1.29,4.22-2.38,6.14-3.6.52-.33.78-1.07,1.15-1.62L30.66,215c.62-1.08,1.28-2.23,1.93-3.38l-.73-.45C28.92,213.83,25.93,216.49,24.94,220.92Zm206.66-8.36c5.47.52,11.93-5.4,11.8-10.21,0-.5-.61-1-.94-1.48-.36.45-1,.87-1,1.37-.65,4.18-2.53,7.26-6.89,8.43C233.64,210.91,232.9,211.7,231.6,212.56ZM177.36,70.9c-2.91-2.47-9.36-1.82-11.62,1.29C170,74.28,173.42,71.81,177.36,70.9Zm66.46,94.88-.26.46c-.64-.1-1.45-.49-1.86-.23-.59.37-1.3,1.28-1.21,1.84.18,1.19,4,1.7,4.47.58,1-2.16,2-4.43.8-7.23l-4.09,3.12Zm-50,70.32A11,11,0,0,0,200.66,226c0-.55-.52-1.1-.95-1.94C197.67,228.25,195.89,231.9,193.85,236.1ZM201.44,212c-.33,1.66-.75,3.8-1.21,6.08,3.43-1.11,6.36-5.16,6.12-8.58Zm7.47-4c-.36.51-.66.74-.7,1-.72,4.93-2.72,8.89-7.69,10.86-.64.26-.93,1.4-1.54,2.38C204,222.33,210.87,212.51,208.91,208ZM97,222.7l-.81-.22c-.52,1.06-1.55,2.16-1.47,3.18.18,2.48,3.38,5.5,6,6-1.15-2.18.77-5.82-3.4-6.15ZM112.87,67.12l.21,1c2.67-.07,4.48,3.34,7.33,1.85.16-1,.3-1.73.37-2.47.1-1.3,0-2.74-1.76-2.39A51.09,51.09,0,0,0,112.87,67.12ZM78.92,176.75a10.36,10.36,0,0,0-1.81-1.11,7.09,7.09,0,0,1-4.63-5.15c-.69-3-.88-6-1.33-9a14.44,14.44,0,0,0-.63-2C68.83,168.94,72.73,176.73,78.92,176.75ZM61.15,200.54l-1-.16c-2.13,3.36-3.06,7-1.5,10.87.79,2,1.74,4.05,4.26,5.08-1.3-2.93-3.08-5.38-3.36-8S60.55,203.15,61.15,200.54ZM164.94,9.22l2.37-5c-2.78-1.43-5.92-1.2-7.82.49Zm58.9,221.69-.84,0c0,3.51.55,7.13-.15,10.49s-2.64,6.43-4,9.63c1.6-1.19,3.62-2.52,4.19-4.31A34,34,0,0,0,223.84,230.91Zm-160-34.5-.62.31c-.23,6.24,3.48,13.35,7.14,13.33-.22-.48-.28-1.05-.6-1.29-3.12-2.31-4.33-5.44-4.46-9.24C65.25,198.47,64.34,197.45,63.83,196.41Zm69.9-145.06c2.85,0,5.6-.51,8,.14s4.81,2.45,7.63,4C146.46,49.6,137.46,47.3,133.73,51.35Zm8.89,22.22L143,73c-2.07-3.89-8.71-6.5-12.74-4.93-.49.19-.81.81-1.22,1.23.54.18,1.17.64,1.61.51,3.62-1.09,6.65.06,9.49,2.23C140.91,72.59,141.79,73.05,142.62,73.57Zm6-11.64c-3.49-2.91-7.22-3-9.17-.79a2.34,2.34,0,0,0-.37,1.68,1.25,1.25,0,0,0,1,.72C142.68,63.11,145.3,62.57,148.58,61.93Zm84.2,114.58c-1,.3-2,.59-3.05.91a3.22,3.22,0,0,0-.69.44c.27.54.52,1,.8,1.63-2.46.25-3.08,1.2-3,4.31A6.72,6.72,0,0,0,232.78,176.51ZM115.55,242.35c-2.93-1.69-6.08-2.81-8.24-4.94s-3.34-5.26-4.93-7.91C102,236.87,111.16,243.89,115.55,242.35Zm41.1-182.51c1,.42,1.91,1.15,2.52,1a45.88,45.88,0,0,0,5.12-2.2c-2.54-2.39-7.7-1.82-9.63,1.16l1.74,2.11C156.52,60.89,156.6,60.3,156.65,59.84ZM249.73,200.4c-1,5.63-4.43,9-9.36,11.2,4.49-.31,7.73-2.26,9.56-6.29C251.18,202.54,251.23,202,249.73,200.4ZM165.92,76.07c-2.72-5.71-14.36-6.33-18-.79C154.2,70,160.07,72.91,165.92,76.07ZM96,202.74c-.36-2.05,1.43-4.19-1.47-5.27,1.24-2.39.27-3.77-2.09-4.58A8.31,8.31,0,0,0,96,202.74Zm69-150c-2.74-4.29-6.57-5.32-10.73-5.11-2.15.11-4.59.53-5.72,3.21,2.9-.63,5.67-1.9,8.26-1.61S161.94,51.31,165,52.69ZM75.8,182.82v-2.68l-1.88.58,1-2.31c-.94-.86-1.9-1.63-2.73-2.53S70.68,174,69.84,173C69.39,177.54,72,181.82,75.8,182.82ZM138.19,66.2c-.87-4.75-8.34-8.42-11.93-6.7C131,61,131,61,135.25,64.8A13.51,13.51,0,0,0,138.19,66.2ZM202.39,208c4.61,1.52,11.61-8.15,10-12.59-1.3,2.33-1.93,5.11-3.51,7.15S204.67,206.17,202.39,208ZM198.13,68.35l.29-.7c-3.33-4-13.73-4.88-17.63-1.12,3.22-.54,6.17-1.66,9-1.34S195.34,67.24,198.13,68.35ZM25.1,227.58l7.63.84-.34-.61L36,225l-.31-.58C32.3,225.44,28.26,224.06,25.1,227.58Zm160-190.19c-4.23-1.57-10.82,3.4-11.43,8.44,1.75-1.84,3.34-3.54,5-5.19S183.69,40.36,185.09,37.39Zm-45.64,36c-3.08-3-6.34-3.49-9.19-1.44l4,3ZM64.47,173c-.16-.49-.17-.8-.32-.91a13.7,13.7,0,0,1-6.28-12.19c0-.94-.8-1.9-1.46-3.36C55,162.64,59.89,172.24,64.47,173ZM225,214.69c6.35-1.54,12.24-11.16,9.15-14.15a28.23,28.23,0,0,0-.72,3.16,9.8,9.8,0,0,1-6.11,8.36C226.38,212.5,225.79,213.79,225,214.69Zm3-4.87c3.39-1.93,4.66-5,4-9.16h-3l1.31,1.82C227.53,204.37,229.27,207.56,228,209.82Zm-142.57-4.1c-6.73-2.63-7.48-8.16-7.34-14.19-1.81,3.65-1.24,7.15.66,10.37C80.15,204.22,82.05,206.2,85.45,205.72Zm117.94-10.63c5.3,2.23,13.17-5,11.76-9C212.2,190.6,209.35,194.93,203.39,195.09ZM109.45,227.7c-4.59-2-8.64-4-11-8.16C99.07,224.81,104.76,229.26,109.45,227.7Zm115.92-40.87c6.1-.16,11.49-6.15,10.41-11.62-1.39,2.74-2.15,5.41-3.84,7.25S227.59,185.4,225.37,186.83ZM90.29,189.92c-1.49,9.26.75,15,5.42,15.16-.15-.34-.2-.71-.4-.88A11.44,11.44,0,0,1,90.82,192C91,191.36,90.48,190.61,90.29,189.92Zm62-132.49c3-.56,5.67-1.6,8.28-1.41s5.39,1.57,8.59,2.6C165.49,54,156,53.4,152.26,57.43ZM87.63,185.87c-1.32-2.1-3.22-4.3-4.19-6.85s-1.12-5.65-1.62-8.51C78.85,174.49,82.78,184.19,87.63,185.87Zm3.65-9.41c-3.93,4.27.2,14.53,3.75,15.31-1.26-2.46-3-4.76-3.61-7.33S91.28,179.13,91.28,176.46Zm33.1-123.75c.07,1.19.13,2.22.22,3.68L126,54.82l0,.79,6.62,1.85C131.58,54.66,127.56,52.35,124.38,52.71ZM130,48.22c-.11-2.22-2.15-5.54-3.84-6.12-.35-.12-1.37.52-1.39.85C124.52,46.33,126.05,47.87,130,48.22ZM211.8,223.5c-.31.46-.77.83-.77,1.2,0,4.58-2.72,7-6.45,8.91a25.1,25.1,0,0,0-3.53,2.79C207.58,235.41,213.88,227.52,211.8,223.5ZM241.15,161c5.59-2.16,9.16-9.43,6.11-16.43C248,151.09,246.91,156.93,241.15,161Zm35.32,78.15c.76-1.8,1.55-3.41,2.07-5.1.09-.3-1.05-1.44-1.33-1.34a46.36,46.36,0,0,0-4.67,2.05ZM63.89,213.89l1.91-4-2.33.45c1.47-2.82-.67-4-1.73-5.93C60.34,208,60.9,211,63.89,213.89ZM83,212.56l1.82-4.3-2.24.9-3.95-4.08C78.25,209.44,79.48,211.45,83,212.56ZM159.56,63.91c2.79-.71,5.59-2,8.33-1.93,2.91.13,5.75,1.65,8.74,2.59C174.45,60.19,164,59.32,159.56,63.91Zm46.69,162.14-.57-.18c-.22,1-.46,1.92-.67,2.88s-.42,1.88-.63,2.86a6.7,6.7,0,0,0,5.13-7.5Zm34.33,5.4a59.11,59.11,0,0,0,6.86,4.47c1.3.62,3.05.3,4.6.39l.07-.74C248.5,234,245.31,231.22,240.58,231.45ZM68.17,212c-2.22,1-3.89,5.2-3.33,8.4A6.91,6.91,0,0,0,68.78,226C65.2,221.41,65.63,216.79,68.17,212Zm141.74,9c4.41-.44,8.36-9,6.31-14.07C216,212.54,214.7,217.6,209.91,221.05Zm53.22,9.65c3.7.74,7.4,1.54,11.44-.16C270.4,227.65,266.79,230,263.13,230.7ZM73.62,208.88c-3.41,4.55-2.17,10,2.79,11.78A13,13,0,0,1,73.62,208.88Zm-3.28,15.18L72,220.81l-3-.29c2.67-2,.53-4.14.22-6.55C67,217.52,67.26,221.17,70.34,224.06Zm87.72-157.7c-3.83-3.2-8-3-12.27-1.38-1.51.56-3.48.85-4.07,3.54C147,64.27,152.44,64.45,158.06,66.36Zm-22.13,11.4c5.28-1,10.41-1.12,15,2.36A11.09,11.09,0,0,0,135.93,77.76Zm98.95,107c5,1,11-3.73,9.43-7.75C242.6,181.62,238.88,183.33,234.88,184.72ZM39.15,183c-.3,4.66,6.67,10.78,11.12,9.88-2.11-1.3-4.66-2-6.48-3.55S40.81,185.31,39.15,183Zm214.68-1.31-10.41,2.26C246.43,186.73,250.72,185.7,253.83,181.65ZM147.92,80.38c-2.36-2-6.63-2.47-9.1-1C142,82.07,145,82.38,147.92,80.38Zm90.67,106.68c-3.2.25-4.64,2.54-4.45,7.06C237.24,192.7,238.94,190,238.59,187.06ZM34.67,219.26l-.38-.67c-3.45.52-6,2.48-8.45,5.36l7.71-1.52-.15-.69-1.87-.82ZM262,180.36a8.14,8.14,0,0,0,6.66-2.49c1.62-1.52,3.4-3.3,2.16-6.3C269.29,176.06,266.14,178.69,262,180.36ZM60,161.89c-.49,3.44,1.77,7.16,4.45,7.93l.68-2.34ZM133.21,46.35l.75.39.74-.9-.06.74,7.47.86c-1.51-2.73-5.49-4.23-7.87-3C133.71,44.68,133.55,45.68,133.21,46.35Zm12.71,2.23a8.64,8.64,0,0,0-6.8-6.49c-2.21-.57-4.44-1-6.37,1.14C138.76,41.08,142.3,44.82,145.92,48.58ZM120.13,62.75c-2.61-1.86-8.81.86-10.5,4.75ZM82,218a7,7,0,0,0-4.72,5.47A5.08,5.08,0,0,0,79,228.67c.28-1.78,0-3.6.37-5.22S80.93,220.13,82,218ZM232.3,197.39c4.61.58,10-7,8.26-11.5C240.49,191.68,236.86,194.85,232.3,197.39ZM160.88,52.51C158,49.92,155,49.59,152,51.24c-.53.28-1.22.9-1.21,1.35s.69,1.07,1.25,1.86l.7-1.94ZM59.8,236c5.22-.83,7.73-2.93,6.81-5.35C63.55,231.16,61.56,233,59.8,236ZM126.09,61.47c.41,1.37.72,2.41,1.12,3.72l1-1.59,1.15,2,4.28-.49C131.43,62.93,129.51,61.12,126.09,61.47ZM242.5,177.05l-4-.47c-.57,1.81-1.09,3.49-1.62,5.19C239.47,181.81,241.32,180.31,242.5,177.05ZM75.08,225.73c-3.24,1.92-4,3.63-3,6.66C75.11,231.32,75.93,229.58,75.08,225.73Zm-2,9.9c-2.37,2.09-1.86,4.43-1,6.79.7,1.93,1.72,3.52,4.13,4-1-1.85-2.26-3.35-2.74-5.07S73.2,237.53,73.1,235.63Zm6.08-55.93c-3,3-.31,11,4.51,13.61C79.14,189.78,79,184.82,79.18,179.7Zm174.35,19.57c3.21.07,5.85-.58,7.34-3.6l-3.35-.75ZM74.64,190.1c-.15-3.33-3.48-3.21-4.7-5.19a6.67,6.67,0,0,0,5.65,6.73l.6-2.35ZM183.42,67.89c3.16,2.91,6.09.5,9.31.11C190.66,66.15,186.64,66.16,183.42,67.89Zm-113.8,132c-1.29-3.28-2.69-6.82-4.1-10.39A8.59,8.59,0,0,0,69.62,199.92Zm156.94,45c5.41-1.46,6.34-9.64,4-15.73C230.66,235.22,231.8,240.92,226.56,244.89Zm.84-20.11c4.15.32,8.76-5.36,8.15-10.29a6,6,0,0,0-1.63,2.47c-.9,3.11-1.82,6.11-5.56,6.94C228,224,227.79,224.41,227.4,224.78Zm-66.18-159c3.44,1.06,6.12-1,9.66-1.73C167,62.48,162.84,63.34,161.22,65.79ZM57.55,170.09c-.84,4.93,2.06,12.14,6.09,12.47C59,179.64,59,174.54,57.55,170.09Zm5.28,20.27c-5-2.5-5.63-7.52-6.78-12.21C55.28,184.33,57.9,189,62.83,190.36Zm-44.5,27.18-.6.85,4.15,4,1.38-5.87ZM160.56,16.91l.77-.42-4.78-8.8-.73.39C155.3,12.18,158.43,14.27,160.56,16.91ZM93.28,226l-.84.37a11.1,11.1,0,0,0,1,2.9c2.89,4,5.91,6,8.78,5.36C98.22,232.46,94.63,230.33,93.28,226ZM76.37,201.88c-2.26,4.89,1.83,13.05,5.57,13-1.37-1.71-3.26-3.36-4.18-5.43S76.86,204.79,76.37,201.88Zm186.7-4.76c-3.15,1.54-6,2.89-8.74,4.33-.51.27-.82.94-1.23,1.42C257.66,202.74,260.67,200.61,263.07,197.12Zm6.51-2.8c-1.84-.3-3.84-.24-5.47-1s-2.95-2.31-4.58-3.66C259.82,193.63,265.75,196.59,269.58,194.32ZM158.67,45.74c-2.79-3.78-6.63-4-10.68-3.26a10,10,0,0,0-2.14.86c2.49.3,4.72-.27,6.82,0S156.68,44.92,158.67,45.74Zm87.19,152.63c4.34,1.42,10.81-3.41,11.08-8.4C253.73,193.85,251.55,198.49,245.86,198.37ZM67.32,228.65c-4.17-1.33-9.38,2.86-9.13,7.37C60.45,232.33,63.2,229.66,67.32,228.65Zm153.62-5a6.13,6.13,0,0,0,5-6.45l-3.12.73,2.49,2.12L222,219.7C221.66,221,221.33,222.24,220.94,223.68Zm-3.29-35c3.54.46,7.37-4.45,7.22-9.35C222.27,182.84,222.07,187.43,217.65,188.7Zm-49.56-173-7-6.69C162.21,13.54,164.71,15.85,168.09,15.73Zm-28.86,24,.49-.49a30.31,30.31,0,0,0-2.41-3,7.88,7.88,0,0,0-2.1-1.09c-.26.65-.86,1.41-.7,1.93a3.83,3.83,0,0,0,1.61,2.18A9.75,9.75,0,0,0,139.23,39.68ZM125.32,50.15,135,56.79C134.18,53,127.75,48.77,125.32,50.15Zm-64.19,147c-4.29-2.08-4.19-6.64-5.9-10.77C54,190.72,57.18,196.4,61.13,197.1ZM135.58,32.83l6.74,7.82C143.26,37.92,139.21,33.13,135.58,32.83ZM120.69,45.41c-2.63-4.49-7.47-6.59-11.06-4.53,1.48.36,2.39.52,3.26.8,1.75.55,3.51,1.08,5.2,1.78A15.18,15.18,0,0,1,120.69,45.41Zm-58.62,173c-2.37-.75-2.58,1-3,2.19-1.06,3.21-.5,7,1.45,7.94C58.7,224.62,60.44,221.54,62.07,218.36Zm189.84-32.29c2.85,2.22,6.88,2.84,9.19,0ZM176.21,60.7c4.21-2.26,8.19.33,12.27.82C184.55,58.77,180.53,57.41,176.21,60.7ZM122.74,72.39c-2.34-1.16-7.92,1.43-9.91,5.26Zm13-18.52a21.56,21.56,0,0,0,3.63.51,33.1,33.1,0,0,0,4.14-.66C140.12,51.2,137.55,51.18,135.69,53.87ZM70.26,204.6l-2.62-3.24-1,.72,3.7,5.77,1.09-.26a8.81,8.81,0,0,0,.53-2.51C71.94,204.86,70.66,204.71,70.26,204.6Zm5.14,18.67c-2-.43-2.66,0-4.87,3.13a6.64,6.64,0,0,0-.21,7C69.75,228.58,72,225.79,75.4,223.27Zm-.59-25.65-.6-.65-1,.52-4.44-4c.4,3.14,2.42,6.05,4,5.91C73.53,199.32,74.15,198.24,74.81,197.62Zm11.53,25.69c-3.76-3.45-.29-7.48-.91-11.13C82.87,217.5,83.14,221.16,86.34,223.31Zm149-14.55c3-1.32,5-4.38,4-5.76l-2-.16C236.69,204.78,236.09,206.53,235.34,208.76ZM55.9,203.62l-2.31-10.79C52.07,197,53,201,55.9,203.62Zm21.62,12.7-2-4.49-.63.29c-.32,3,.76,6.16,2.31,6.23.69,0,1.41-.88,2.12-1.36l-.31-.67ZM180.28,56.06c-3.87-2.71-9.13-2.8-10.31-.89ZM61.47,173.31l-1,.86c0,2.36.41,4.52,2.93,6.06l.87-3.27-.82.76Q62.47,175.52,61.47,173.31Zm26.13,49c.66-1.53,1.18-2.75,1.75-4.06l-2.83-2.37C85.8,218.4,85.57,220.44,87.6,222.3Zm149.74-54.63c2.21-2.06,2.3-4.75,0-9.75Zm1,63.68-4.18,8.87C237,239.51,239,235.1,238.37,231.35Zm37.78-3.67c-1.6-3-4.31-2.75-6.83-3C271.16,226.58,273,228.55,276.15,227.68Zm8.21-8c-.18,1.72-.34,3.17-.49,4.62l.89.31,3.23-4ZM174.8,51.49c-2.69-3.28-7.59-4.5-9.8-2.23C168.9,47.47,171.54,50.73,174.8,51.49Zm93,141c-2.05-1.76-3-4.23-5.92-3.69C262.54,191.46,264,192.44,267.82,192.5Zm-50.76,24.93c4,.24,6.94-2.15,6.53-4.8ZM144,6.55l4-2.66-.16-.71L143,2.42ZM246.9,159.34c2.45,3.72.22,7.32-.35,10.94A8.44,8.44,0,0,0,246.9,159.34Zm31.78,67.25.54-.66c-1-2.11-1.49-4.72-5.45-3.72ZM249.11,188l-3.69,7.89C248.42,194,249.76,191.43,249.11,188Zm-119-162,2.18,8.61C133.6,30.76,133.22,28.69,130.1,25.91Zm97.2,177.53-1.48-.4-1.33,7.86.64.21C225.86,208.55,226.58,206,227.3,203.44Zm4.54,11.47-3,7.08A5.37,5.37,0,0,0,231.84,214.91ZM80.15,226.85l.93.18c2.45-2.25,2.5-2.67,0-5.51Zm171.92-36.27c-1.1,2-2,3.61-2.95,5.25l.68.58,4.6-4.48ZM220.66,226.7c2.58,0,6-3.28,6.27-5.59Zm-158.58-6c-.44,2.17-.74,3.66-1.12,5.55C64.42,225,64.09,223.31,62.08,220.67ZM183.21,62.1c-1.68-.73-3.41-1.93-5.12,0C179.8,64.53,181.5,62.58,183.21,62.1ZM91.16,217.37l.93-.67-4-5.28-.83.6Zm146.37-19.44c2.76,1.75,4.66,1.23,6.13-1ZM88.9,202.25l-1.05-.11c-.33,2.42-.67,4.83-1,7.25l.64.05Zm162.08-21-.06-1.11h-4.68c.16.56.32,1.55.45,1.54C248.12,181.64,249.55,181.43,251,181.26ZM215.84,220c-.45,1.86-.82,3.37-1.19,4.88C217.14,223.15,217.44,221.72,215.84,220Zm62.93,1,2,3.49.63-.23c-.1-1.35-.2-2.71-.3-4.22Zm-34.88-13.77.5.51c.77-1,1.61-2,2.27-3,.17-.28-.2-.9-.32-1.36-.43.24-1.06.37-1.24.73A31.84,31.84,0,0,0,243.89,207.22Zm-68-149.84v-.92l-4.56.35C173.26,59.91,174.54,57.61,175.91,57.38ZM150,40.28l.23-1.26L145,38.14l-.17.82Zm-23.95-1.14-.72.76,4.63,4,.51-.53ZM236.55,222.91l-.87.3,1.71,5.31.81-.27ZM170.93,51.85c-2.47-2.19-3.36-2.07-3.85,0ZM28,230.47l3.67,2.39.36-.56C30.7,231.92,31.29,228.68,28,230.47Zm212.91,3.07c.55,2.51,2.16,2.82,4.26,2.1Zm.66-18.7-.81-.68-3.37,4.38.62.55ZM148,45.1l.12,1.09,4.36-.72-.17-1.06ZM27.33,211.26l1.05.52q1.05-2.25,2.11-4.52l-.74-.38ZM59,182.58l-.56.28,2.49,4.4C62.22,184.38,59.8,183.91,59,182.58Z"/><path d="M210.47,139.8c.3-1.41.59-2.83.9-4.25s.26-2.39-1.37-3.17c-2.23-1.07-2.59-4.1-.74-5.33a4,4,0,0,1,3.15-.23c.53.19,1,1.61.87,2.4-.45,3.33-1.11,6.63-1.72,9.94a3,3,0,0,1-.48.79Zm1.66-11.55-.6-.77c-.75.58-2,1.08-2.12,1.77s.89,1.57,1.41,2.37l.65-.35Z"/><path d="M201.55,143.31l3.93-9.52.7.29c-.67,3.42-1.13,6.93-3.64,9.63Z"/><path d="M206.3,149.52,209,143l1.05.43c-.89,2.18-1.79,4.37-2.69,6.55Z"/><path d="M138.12,213.14c1.82,1.65,3.68,2.38,6.09,1.4.55-.22,2.34,1,2.52,1.76.27,1.21-.36,2.62-.72,4.52L137.55,214Z"/><path d="M136.78,201.65q3.57,3.66,7.15,7.33l-.94.89-7-7.47Z"/><path d="M130.16,204.84l5.27,5.5-.85.86-5.43-5.31Z"/><path d="M137.12,208.68l4.62,4.23-.65.68-4.55-4.29Z"/><path d="M114.08,109.91c-.78.14-1.56.28-2.34.4-2.33.33-4.41.81-5.38,3.53a5.13,5.13,0,0,1-3.06,2.5c-.49.17-1.63-1.31-2.31-2.18-.21-.27,0-1.36.22-1.43,4.05-1.28,8.13-2.47,12.21-3.66.16,0,.41.2.62.31Z"/><path d="M119.7,116.1l-11.42,1.71C110.25,115.6,117.1,114.23,119.7,116.1Z"/><path d="M125.44,110.91l-7.72.6-.08-.79c2.41-1.39,5.08-.76,7.65-.9Z"/></g></g></g></svg>