<svg xmlns="http://www.w3.org/2000/svg" viewBox="0 0 76.87 87.1"><g id="Layer_2" data-name="Layer 2"><g id="Layer_1-2" data-name="Layer 1"><path d="M0,43.51C0,37,.07,30.57,0,24.1a3.32,3.32,0,0,1,1.93-3.33Q19.29,10.79,36.51.62a3.58,3.58,0,0,1,4.12.07c11.28,6.79,22.62,13.5,33.86,20.36a4.7,4.7,0,0,1,1.93,3.32c.25,12.93.3,25.87.45,38.8a3.69,3.69,0,0,1-2.13,3.57Q57.58,76.57,40.5,86.49a3.43,3.43,0,0,1-3.9,0q-17-9.85-34.05-19.57a4,4,0,0,1-2.21-4c.08-6.47,0-12.94,0-19.4Zm2.89-21c.85.41,1.16.54,1.45.71,10.73,6,21.43,12,32.19,17.83a5,5,0,0,0,5.16-.23c7.42-4.38,14.93-8.61,22.4-12.91,2.9-1.67,5.77-3.4,8.9-5.24a12.7,12.7,0,0,0-1.27-1.07C61.16,15.29,50.57,8.93,39.9,2.72a4.05,4.05,0,0,0-3.32.3c-5.8,3.21-11.51,6.57-17.24,9.9C14.12,16,8.91,19,2.92,22.53Zm-.56,1.95a8.1,8.1,0,0,0-.27,1.33c.07,11.85.05,23.7.37,35.54a6.8,6.8,0,0,0,2.89,4.73c8,4.88,16.15,9.45,24.26,14.11,2.47,1.42,5,2.8,8,4.51V81.42c0-11.35-.1-22.71.07-34.06a5,5,0,0,0-2.95-5.08c-8-4.33-16-8.8-23.92-13.21C8.1,27.57,5.37,26.11,2.36,24.48Zm72.35-.26c-1.44.75-2.16,1.1-2.86,1.5-9.55,5.48-19,11.05-28.67,16.42a6.47,6.47,0,0,0-3.7,6.37c.09,11.19,0,22.38.05,33.57a19,19,0,0,0,.23,2.15,4.55,4.55,0,0,0,1-.22c10.84-6.24,21.7-12.44,32.47-18.79a4.06,4.06,0,0,0,1.54-3c.11-6.3,0-12.6,0-18.9C74.69,37.19,74.71,31.07,74.71,24.22Z"/></g></g></svg>