<svg xmlns="http://www.w3.org/2000/svg" viewBox="0 0 75.55 66.51"><g id="Layer_2" data-name="Layer 2"><g id="Layer_1-2" data-name="Layer 1"><g id="U3a8dE.tif"><path d="M37.49,66.48H2.75c-3,0-3.42-.77-1.91-3.39Q16.7,35.47,32.59,7.89c1.17-2,2.33-4,3.51-6,1.43-2.43,2.16-2.46,3.55,0C43.14,7.86,46.58,14,50,20Q62.36,41.6,74.67,63.19c1.54,2.7,1.15,3.33-1.93,3.32q-17.62,0-35.25,0Zm1.92-61.1-.6.12a14.88,14.88,0,0,0-.2,1.75c-.1,11.16-.14,22.32-.29,33.48a3.76,3.76,0,0,0,2.19,3.77c6.75,3.79,13.43,7.69,20.14,11.55,3.42,2,6.86,3.92,10.28,5.88l.51-.48Zm30.8,58.94c-.56-.67-.67-.91-.86-1C59.32,57.54,49.28,51.82,39.28,46a3.14,3.14,0,0,0-3.64.1c-9.57,5.7-19.19,11.32-28.81,17a7.39,7.39,0,0,1-1.32.47l.59.76Zm-66.6-2.1a10.41,10.41,0,0,0,1.48-.42c10-5.86,20-11.69,29.86-17.66a3.91,3.91,0,0,0,1.33-2.88c.21-11.07.3-22.14.4-33.21a13.11,13.11,0,0,0-.23-1.75l-.58-.11Z"/></g></g></g></svg>